<svg xmlns="http://www.w3.org/2000/svg" xmlns:xlink="http://www.w3.org/1999/xlink" xml:space="preserve" version="1.1" style="shape-rendering:geometricPrecision;text-rendering:geometricPrecision;image-rendering:optimizeQuality;" viewBox="0 0 50000 62500" x="0px" y="0px" fill-rule="evenodd" clip-rule="evenodd"><defs><style type="text/css">
   
    .fil0 {fill:black;fill-rule:nonzero}
   
  </style></defs><g><path class="fil0" d="M18984.74 29958.31c328.84,0 328.84,500 0,500l-7233.58 0c-4979.36,0 -9016.02,-4036.68 -9016.02,-9016.03 0,-5467.96 4867.97,-9703.11 10297.54,-8924.34 3913.45,-9484.32 17372.44,-10812 22729.13,-1459.81 2524.02,273.9 4647.74,2046.3 5373.9,4478.24 3552.29,667.48 6129.14,3781.17 6129.14,7395.56 0,4156.64 -3369.74,7526.38 -7526.38,7526.38l-8730.53 0c-328.84,0 -328.84,-500 0,-500l8730.53 0c3880.58,0 7026.38,-3145.8 7026.38,-7026.38 0,-3563.78 -2548.25,-6380.61 -6025.62,-6957.66 -692.17,-2553.58 -2646.49,-4211.8 -5282.77,-4442.47 -5117.92,-9156.27 -18281.12,-8169.64 -22107.97,1541.57 -5330.18,-880.58 -10113.35,2952.75 -10113.35,8368.91 0,4703.3 3812.72,8516.03 8516.02,8516.03l7233.58 0zm7743.88 12255.85c0,-328.84 500,-328.84 500,0l0 329.58c0,328.84 -500,328.84 -500,0l0 -329.58zm0 -1781.94c0,-328.84 500,-328.84 500,0l0 659.16c0,328.84 -500,328.84 -500,0l0 -659.16zm-1992.46 4305.8c0,-328.84 500,-328.84 500,0l0 329.57c0,328.84 -500,328.84 -500,0l0 -329.57zm0 -1781.94c0,-328.84 500,-328.84 500,0l0 659.16c0,328.84 -500,328.84 -500,0l0 -659.16zm-1992.24 -741.92c0,-328.84 500,-328.84 500,0l0 329.58c0,328.84 -500,328.84 -500,0l0 -329.58zm0 -1781.94c0,-328.84 500,-328.84 500,0l0 659.16c0,328.84 -500,328.84 -500,0l0 -659.16zm-5159.59 -30792.04c-141.83,136.42 -349.22,-79.22 -207.42,-215.62 3092,-2964.34 7637.38,-3800.85 11555.52,-2182.25 181.89,74.77 68.2,351.33 -113.68,276.56 -3807.78,-1572.98 -8230.19,-758.9 -11234.42,2121.31zm-5696.64 18592c197.31,0 197.31,300 0,300 -3877.29,0 -7132.03,-3070.01 -7132.03,-6987.5 0,-197.31 300,-197.31 300,0 0,3753.25 3118.87,6687.5 6832.03,6687.5zm33216.29 -5569.09c0,-197.31 300,-197.31 300,0 0,3421.92 -2774.1,6196.03 -6196.02,6196.03 -197.31,0 -197.31,-300 0,-300 3256.32,0 5896.02,-2639.71 5896.02,-5896.03zm-15875.84 -8343.02c0,328.84 -500,328.84 -500,0l0 -659.16c0,-328.84 500,-328.84 500,0l0 659.16zm-2010.89 -1781.94c0,328.84 -500,328.84 -500,0l0 -329.58c0,-138.07 111.93,-250 250,-250 138.07,0 250,111.93 250,250l0 329.58zm0 1781.94c0,328.84 -500,328.84 -500,0l0 -659.16c0,-328.84 500,-328.84 500,0l0 659.16zm-1992.46 -3268.81c0,328.84 -500,328.84 -500,0l0 -164.77c0,-328.84 500,-328.84 500,0l0 164.77zm0 1486.87c0,328.84 -500,328.84 -500,0l0 -329.58c0,-138.07 111.93,-250 250,-250 138.07,0 250,111.93 250,250l0 329.58zm0 1781.94c0,328.84 -500,328.84 -500,0l0 -659.16c0,-328.84 500,-328.84 500,0l0 659.16zm-1980.87 -1781.94c0,328.84 -500,328.84 -500,0l0 -329.58c0,-138.07 111.93,-250 250,-250 138.07,0 250,111.93 250,250l0 329.58zm0 1781.94c0,328.84 -500,328.84 -500,0l0 -659.16c0,-328.84 500,-328.84 500,0l0 659.16zm-2018.85 0c0,328.84 -500,328.84 -500,0l0 -659.16c0,-328.84 500,-328.84 500,0l0 659.16zm-7772.81 5978.94c328.84,0 328.84,500 0,500l-164.78 0c-328.84,0 -328.84,-500 0,-500l164.78 0zm0 -1994.51c328.84,0 328.84,500 0,500l-164.78 0c-328.84,0 -328.84,-500 0,-500l164.78 0zm1486.86 3989.04c328.84,0 328.84,500 0,500l-329.57 0c-328.84,0 -328.84,-500 0,-500l329.57 0zm0 -1994.53c328.84,0 328.84,500 0,500l-329.57 0c-328.84,0 -328.84,-500 0,-500l329.57 0zm0 -1994.51c328.84,0 328.84,500 0,500l-329.57 0c-328.84,0 -328.84,-500 0,-500l329.57 0zm1781.94 5983.56c328.84,0 328.84,500 0,500l-659.16 0c-328.84,0 -328.84,-500 0,-500l659.16 0zm0 -1994.52c328.84,0 328.84,500 0,500l-659.16 0c-328.84,0 -328.84,-500 0,-500l659.16 0zm0 -1994.53c328.84,0 328.84,500 0,500l-659.16 0c-328.84,0 -328.84,-500 0,-500l659.16 0zm0 -1994.51c328.84,0 328.84,500 0,500l-659.16 0c-328.84,0 -328.84,-500 0,-500l659.16 0zm19808.13 2494.51c-328.84,0 -328.84,-500 0,-500l164.79 0c328.84,0 328.84,500 0,500l-164.79 0zm0 -1994.51c-328.84,0 -328.84,-500 0,-500l164.79 0c328.84,0 328.84,500 0,500l-164.79 0zm-1486.86 3989.04c-328.84,0 -328.84,-500 0,-500l329.57 0c328.84,0 328.84,500 0,500l-329.57 0zm0 -1994.53c-328.84,0 -328.84,-500 0,-500l329.57 0c328.84,0 328.84,500 0,500l-329.57 0zm0 -1994.51c-328.84,0 -328.84,-500 0,-500l329.57 0c328.84,0 328.84,500 0,500l-329.57 0zm-1781.94 5983.56c-328.84,0 -328.84,-500 0,-500l659.16 0c328.84,0 328.84,500 0,500l-659.16 0zm0 -1994.52c-328.84,0 -328.84,-500 0,-500l659.16 0c328.84,0 328.84,500 0,500l-659.16 0zm0 -1994.53c-328.84,0 -328.84,-500 0,-500l659.16 0c328.84,0 328.84,500 0,500l-659.16 0zm0 -1994.51c-328.84,0 -328.84,-500 0,-500l659.16 0c328.84,0 328.84,500 0,500l-659.16 0zm-4851.51 -684.52c538.6,0 978.72,440.13 978.72,978.73l0 6817.76c0,538.6 -440.11,978.73 -978.72,978.73l-6817.77 0c-538.61,0 -978.73,-440.12 -978.73,-978.73l0 -6817.76c0,-538.59 440.14,-978.73 978.73,-978.73l6817.77 0zm0 300l-6817.77 0c-373.01,0 -678.73,305.72 -678.73,678.73l0 6817.76c0,373.03 305.7,678.73 678.73,678.73l6817.77 0c373.02,0 678.72,-305.71 678.72,-678.73l0 -6817.76c0,-373.02 -305.7,-678.73 -678.72,-678.73zm-5689.35 -2962.34c0,-328.84 500,-328.84 500,0l0 1068.33 1494.52 0 0 -1068.33c0,-328.84 500,-328.84 500,0l0 1068.33 1494.53 0 0 -1068.33c0,-328.84 500,-328.84 500,0l0 1068.33 1494.51 0 0 -1068.33c0,-328.84 500,-328.84 500,0l0 1076.44c935.31,85.3 1685.12,835.11 1770.42,1770.42l1115.47 0c328.84,0 328.84,500 0,500l-1107.36 0 0 1494.51 1107.36 0c328.84,0 328.84,500 0,500l-1107.36 0 0 1494.53 1107.36 0c328.84,0 328.84,500 0,500l-1107.36 0 0 1494.52 1107.36 0c328.84,0 328.84,500 0,500l-1107.36 0 0 1494.53 1107.36 0c328.84,0 328.84,500 0,500l-1123.36 0c-113.16,878.18 -813.55,1578.19 -1691.82,1690.79l0 7222.76 17740.55 -53.39c137.52,0 249.02,111.5 249.02,249.02 0,137.52 -111.5,249.02 -249.02,249.02l-18240.55 54.89 0 -7706.46 -1517.62 0 0 10815.93c0,328.84 -500,328.84 -500,0l0 -10815.93 -1517.63 0 0 13320.51c0,328.84 -500,328.84 -500,0l0 -13320.51 -1517.62 0 0 10815.93c0,328.84 -500,328.84 -500,0l0 -10815.93 -1517.62 0 0 7688.01 -18211.72 -31.14c-137.52,0 -249.02,-111.5 -249.02,-249.02 0,-137.52 111.5,-249.02 249.02,-249.02l17711.72 30.29 0 -7208.04c-868.3,-121.83 -1556.87,-817.94 -1668.94,-1687.71l-1084.33 0c-328.84,0 -328.84,-500 0,-500l1068.33 0 0 -1494.53 -1068.33 0c-328.84,0 -328.84,-500 0,-500l1068.33 0 0 -1494.52 -1068.33 0c-328.84,0 -328.84,-500 0,-500l1068.33 0 0 -1494.53 -1068.33 0c-328.84,0 -328.84,-500 0,-500l1068.33 0 0 -1494.51 -1068.33 0c-328.84,0 -328.84,-500 0,-500l1076.44 0c82.86,-908.55 794.27,-1646.01 1698.52,-1762.53l0 -1084.33c0,-328.84 500,-328.84 500,0l0 1068.33 1494.53 0 0 -1068.33zm6305.46 1568.33c-2683.33,0 -5366.66,0 -8049.99,0 -800.64,0 -1456.63,655.99 -1456.63,1456.63 0,2683.33 0,5366.66 0,8049.99 0,800.63 656,1456.63 1456.63,1456.63l8049.99 0c800.63,0 1456.63,-656 1456.63,-1456.63l0 -8049.99c0,-800.64 -655.99,-1456.63 -1456.63,-1456.63z"/></g><text x="0" y="50015" fill="#000000" font-size="5px" font-weight="bold" font-family="'Helvetica Neue', Helvetica, Arial-Unicode, Arial, Sans-serif">Created by Oleksandr Panasovskyi</text><text x="0" y="50020" fill="#000000" font-size="5px" font-weight="bold" font-family="'Helvetica Neue', Helvetica, Arial-Unicode, Arial, Sans-serif">from the Noun Project</text></svg>