<svg xmlns="http://www.w3.org/2000/svg" xmlns:xlink="http://www.w3.org/1999/xlink" xml:space="preserve" version="1.1" style="shape-rendering:geometricPrecision;text-rendering:geometricPrecision;image-rendering:optimizeQuality;" viewBox="0 0 50000 62500" x="0px" y="0px" fill-rule="evenodd" clip-rule="evenodd"><defs><style type="text/css">
   
    .fil0 {fill:black;fill-rule:nonzero}
   
  </style></defs><g><path class="fil0" d="M16452.71 11879.13l5489.93 -415.36c324.63,-24.57 271.86,31.14 271.86,-295.09l0 -5161.4c0,-1320.23 1095.64,-2402.56 2412.92,-2402.56l2138.34 0c1320.78,0 2400,1079.22 2400,2400l0 4290.79c0,676.11 -87.81,629.11 488.71,584.78l5695.63 -430.92c2373.28,-179.55 2823.98,734.48 2911.47,1890.98 34.18,523.64 17.17,422.12 17.17,1540.25l0 6311.39c0,1094.16 -11.73,2023.68 -437.83,2791.69 -436.23,786.26 -1263.84,1331.11 -2868.86,1577.22l-5806.29 890.32 0 12325.17c0,526.15 -800,526.15 -800,0l0 -12202.5 -4997.05 766.25c-359.18,73.82 -354.21,63.54 -354.21,597.75l0 11771.06c0,526.15 -800,526.15 -800,0l0 -11648.69c0,-624.59 114.18,-560.65 -483.45,-469.01l-5125.22 785.89c-765.95,117.44 -1550.33,210.67 -2325.85,160.44 -1363.6,-88.43 -2592.1,-654.99 -2592.1,-2600.7l0 -9693.36c0,-1413.95 444.59,-2200.22 1250.04,-2670.45 918.58,-536.3 2388.17,-608.7 3514.79,-693.94zm-13323.63 34446.33c-240.2,223.5 -580.05,-141.72 -339.84,-365.24 1184.82,-1100.09 4911.88,-3263.94 6613.47,-3160.96 889.32,53.83 846.33,745.16 498.41,1359.16 -353.61,583.16 -341.57,660.4 342.42,381.29 453.08,-184.88 1093.14,-522.38 1770.09,-873.55 1412.08,-732.52 2964.51,-1537.84 3697.34,-1338.63 1028.34,279.51 79.9,1588.41 487.78,1699.28 708.87,192.69 2932.07,-1166.09 4125.52,-1895.51 655.56,-400.66 1540.24,-950.55 2298.93,-1007.51 747.95,-56.17 1049.93,458.14 783.23,1129.46 -173.8,437.48 -543.52,1205.75 237.35,968.34 761.91,-231.64 2172.53,-972.26 3146.47,-1483.61 880.07,-462.06 3414.29,-1983.4 3886.86,-698.56 495.72,1347.87 1667.05,597.66 2815.62,197.06 4301,-1500.12 9057.04,-2227.19 13553.96,-2837.96 325.01,-43.66 391.37,450.49 66.4,494.14 -4457.43,605.41 -9192.79,1327.45 -13456.3,2814.52 -1426.55,497.55 -2800.51,1265.85 -3448.44,-495.88 -242.18,-658.47 -2613.54,667.69 -3185.68,968.08 -989.54,519.54 -2422.77,1272.03 -3234.35,1518.77 -1277.6,382.92 -1257.95,-563.45 -844.79,-1628.5 128.74,-324.08 86.01,-475.54 -283.23,-447.82 -658.31,49.42 -1496.95,581.17 -2076.27,935.25 -1257.85,768.78 -3601.04,2200.89 -4516.14,1952.15 -1015.51,-276.03 -30.12,-1574.9 -487.78,-1699.28 -546.43,-148.54 -2008.27,609.79 -3337.96,1299.57 -1265.5,656.48 -2420.68,1255.72 -2853.47,1010.47 -289.95,-164.28 -302.13,-535.37 78.84,-1207.67 158.73,-280.13 343.58,-588.54 -94.11,-615.02 -1542.94,-93.37 -5158.96,2020.4 -6244.33,3028.16zm43985.3 -14274.22c325,-47.52 397.24,446.63 72.26,494.14l-10954.74 1642.71c-325,47.52 -397.24,-446.63 -72.26,-494.14l10954.74 -1642.71zm-36939.7 5539.28c325,-47.52 397.24,446.63 72.26,494.14l-7350.14 1102.19c-325,47.52 -397.24,-446.63 -72.26,-494.14l7350.14 -1102.19zm36939.7 -8642.54c325,-47.52 397.24,446.63 72.26,494.14l-15230.7 2283.91c-325,47.52 -397.24,-446.63 -72.26,-494.14l15230.7 -2283.91zm-29100.41 4363.74c325,-47.52 397.24,446.63 72.26,494.14l-10997.42 1649.12c-325,47.52 -397.24,-446.63 -72.26,-494.14l10997.42 -1649.12zm-9036.98 -1848.63c325,-47.52 397.24,446.63 72.26,494.14l-6163.64 924.27c-325,47.52 -397.24,-446.63 -72.26,-494.14l6163.64 -924.27zm12989.95 -12954.67c-326.28,37.25 -382.92,-458.85 -56.64,-496.1l6089.5 -704.09c178.58,-20.65 136.89,1.93 136.89,-153.88l0 -753.89c0,-848.08 284.77,-629.44 793.76,-297.06l2213.29 1445.51c841.9,522.48 726.35,644.21 -54.03,1206.65l-2104.21 1516.63c-71.88,51.8 -145.13,107.85 -204.95,153.61 -451.49,345.37 -656.16,208.21 -649.22,-344.99 2.33,-187.21 -1.78,-376.82 -2.64,-564.28 -1.05,-227.47 42.69,-186.38 -193.96,-154.17l-5898.98 802.68c-325.01,43.66 -391.37,-450.49 -66.4,-494.14l6008.68 -817.61c609.16,-82.85 640.71,-53.48 650.52,559.95l1.26 276.89c1.29,286.77 -46.74,258.06 198.73,81.14l1982.87 -1429.18c339.34,-257.28 337.35,-200.47 -18.39,-425.51l-1895.48 -1237.95c-297.55,-194.35 -264.61,-244 -260.85,102l0 352.23c0,552.93 20.55,602.02 -552.06,668.21l-6117.69 707.35zm2071.64 8970.24c0,-327.55 498.04,-327.55 498.04,0l13.32 10377.54c0,327.55 -498.04,327.55 -498.04,0l-13.32 -10377.54zm1257.02 -22358.16c327.55,-14.12 349.03,483.92 21.48,498.04 -621.78,27.9 -751.31,579.68 -753.38,1105.87l-13.76 3493.59c-1.29,327.55 -499.33,325.6 -498.04,-1.96l13.76 -3493.59c3.17,-812.76 315.23,-1560.87 1229.94,-1601.95zm-1850.75 6229.61l4622.95 -349.77c315.87,-30.64 297.96,-28.46 297.96,-476.63l0 -4518.99c0,-879.18 -720.82,-1600 -1600,-1600l-2138.34 0c-879.75,0 -1612.92,719.9 -1612.92,1602.56l0 4976.18c0,488.97 -69.06,404.44 430.35,366.65zm-8999.6 2054.55c-358.43,436.94 -581.38,1129.37 -581.38,2182.37l0 9182.27c0,802.44 169.18,1340.19 512.74,1631.85 190.7,161.9 446.44,258.14 767.82,291.72 454.76,47.49 959.06,-56.3 1415.05,-117.46l18293.81 -2805.13c1319.68,-202.36 1975.13,-605.24 2290.74,-1174.1 325.74,-587.11 334.71,-1420.2 334.71,-2404.19l0 -6298.16c0,-1163.93 24.59,-923.99 -14.05,-1494.1 -54.24,-717.02 -368.15,-1281.12 -2055.21,-1153.48 -6304.09,476.96 -12606.78,953.82 -18910.15,1430.73 -762.69,57.67 -1509.11,63.34 -2054.08,727.68zm-1198.93 12662.84c-18.46,-54.98 -35.52,-111.54 -51.16,-169.68 -87.7,-325.84 -131.29,-701.45 -131.29,-1128.52l0 -9182.27c0,-766.05 109.59,-1384.65 302.46,-1881.28 153.42,-395.01 533.47,-768.27 -25.29,-442.06 -110.66,64.61 -211.35,139.69 -301.58,227.21 -358,347.24 -551.58,890.37 -551.58,1752.62l0 9693.36c0,569.61 160.63,968.89 421.54,1244.76 36.7,38.8 75.4,75.17 115.89,109.22 608.85,511.89 340.85,133.59 221.01,-223.36z"/></g><text x="0" y="50015" fill="#000000" font-size="5px" font-weight="bold" font-family="'Helvetica Neue', Helvetica, Arial-Unicode, Arial, Sans-serif">Created by Oleksandr Panasovskyi</text><text x="0" y="50020" fill="#000000" font-size="5px" font-weight="bold" font-family="'Helvetica Neue', Helvetica, Arial-Unicode, Arial, Sans-serif">from the Noun Project</text></svg>