<svg xmlns="http://www.w3.org/2000/svg" xmlns:xlink="http://www.w3.org/1999/xlink" xml:space="preserve" version="1.1" style="shape-rendering:geometricPrecision;text-rendering:geometricPrecision;image-rendering:optimizeQuality;" viewBox="0 0 50000 62500" x="0px" y="0px" fill-rule="evenodd" clip-rule="evenodd"><defs><style type="text/css">
   
    .fil0 {fill:black;fill-rule:nonzero}
   
  </style></defs><g><path class="fil0" d="M47532.16 40008.3c224.79,238.92 -138.48,580.72 -363.28,341.8 -2408.44,-2552.61 -2061.65,-6050.91 -1927.12,-9349.49 162.73,-3989.69 313.74,-7691.85 -3513.56,-9747.7 -2505.84,-1346.01 -4933.35,-3024.81 -7499.86,-4233.22 -1108.7,-522.01 -2026.04,-405.69 -3036.08,270.39l0 1306.57c659.98,416.52 1344.7,974.47 1972.56,1447.69 6.46,-114.58 31.33,-232.62 75,-354.91 110.46,-309.57 581.16,-141.62 470.7,167.96 -59.49,166.58 -61.86,313.25 -9.94,445.85 99.82,254.9 385.12,445.12 597.45,615.39 1443.73,1157.61 1792.32,1699.25 2293.26,2588.94 313.83,-281.32 701.72,-311.33 734.32,-825.48 20.55,-327.54 518.6,-296.3 498.04,31.26 -59.36,936.24 -604.56,784.56 -976.33,1249.65 196.43,346.2 434.09,750.95 762.5,1251.4 454.2,559.98 1632.52,447.54 2223.13,203.48 303.18,-124.6 492.6,336.36 189.46,460.94 -537.14,221.95 -1255.02,301.22 -1828.62,186.2 673.84,939.96 1950.33,2585.35 3039.8,3008.81 305.7,118.15 126.07,583.01 -179.68,464.84 -1800.31,-699.76 -3902.15,-4009.25 -4805.95,-5622.66 -817.06,-1458.58 -1639.78,-2140.22 -2881.85,-3092.82 -727.14,-557.64 -1523.07,-1193.23 -2280.34,-1698.48 -1090.44,-727.47 -3142.8,-1220.37 -3368,598.74 -73.65,594.82 142.33,1325.88 742.93,2057.73 336.48,410.03 767.47,768.39 1158.99,1127.85 1225.31,1124.92 2198.31,1733.58 2835.81,3173.08 1038.97,2345.94 936.38,5938.13 837.33,8636.55 0.84,271.25 -21.37,559.42 -32.24,832.08 -37.88,950.83 -71.48,1793.96 -58.33,2435.02 73.23,3569.47 2262.43,5236.75 4198.85,6711.51 304.45,231.87 602.84,459.13 889.84,691.01 107.33,86.29 124.38,243.26 38.09,350.59 -86.29,107.33 -243.26,124.38 -350.59,38.09 -279.09,-225.49 -576.57,-452.06 -880.08,-683.21 -2025.76,-1542.8 -4315.97,-3287.01 -4394.15,-7098.23 -11.02,-537.43 9.3,-1198.97 37.78,-1941.98 -126.42,108.02 -278.86,198.4 -462.01,261.82 -26.93,2026.64 -2195.68,2144.35 -2649.98,1049.3 -353.86,-852.92 -720.43,-1666.11 -1195.35,-2459 -1033.76,39.48 -1190.21,-447.69 -1478.52,-1346.62 -408.76,-1274.38 -749.95,-2501.18 -1292.87,-3738.4 -513.36,-1169.93 -107.06,-1857.51 292.09,-2914.15 -706.92,5.48 -1351.62,-351.07 -1460.84,-1103.77 -107.52,-740.68 322.81,-1443.53 706.82,-2039.4 334.91,-519.7 710.56,-1102.6 878.55,-1926.91l-22930.41 0c-413.01,0 -750,-336.99 -750,-750l0 -16145c0,-413.01 336.99,-750 750,-750l27292.78 0c413.01,0 750,336.99 750,750l0 11760.09c1087.28,-633.35 2108.78,-669.83 3248.98,-132.99 2574.82,1212.32 5009.36,2894.56 7523.28,4244.94 4101.72,2203.26 3944.6,6055.4 3775.28,10206.7 -127.53,3126.95 -491.62,6567.44 1792.36,8988.15zm-21905.32 -20079.26c-197.31,0 -197.31,-300 0,-300l1599.29 0c246.74,-1770.89 2077.46,-1983.32 3466.13,-1311.17l0 -10711.05c-4857.47,0 -9715.14,0 -14572.71,0 -21.61,7.65 -45.31,7.65 -66.92,0l-5298.38 0c-6.14,0.56 -12.3,0.57 -18.44,0l-7836.33 0 0 13479.59c0,136.98 113.02,250 250,250l24419.54 0c-254.01,-490.65 -368.24,-970.92 -364.65,-1407.37l-1577.53 0zm-11747.5 0c-197.31,0 -197.31,-300 0,-300l9611.35 0c197.31,0 197.31,300 0,300l-9611.35 0zm7947.11 -3007.52c-197.31,0 -197.31,-300 0,-300l6160.83 0c197.31,0 197.31,300 0,300l-6160.83 0zm0 -1234.71c-197.31,0 -197.31,-300 0,-300l6160.83 0c197.31,0 197.31,300 0,300l-6160.83 0zm-7947.11 1234.71c-197.31,0 -197.31,-300 0,-300l6029.34 0c197.31,0 197.31,300 0,300l-6029.34 0zm0 -1234.71c-197.31,0 -197.31,-300 0,-300l6029.34 0c197.31,0 197.31,300 0,300l-6029.34 0zm0 -2487.09c-197.31,0 -197.31,-300 0,-300l9611.35 0c197.31,0 197.31,300 0,300l-9611.35 0zm-9144.53 7380.31c-192.66,-41.61 -129.4,-334.57 63.28,-292.96 183.99,40.24 427.8,-21.87 604.38,-78.43 -25.59,-85.46 -38.44,-182.6 -24.23,-292.15 22.83,-176.04 115.99,-377.06 341.81,-598.26 170.72,-167.23 348.53,-291.53 508.19,-369.98 551.75,-271.09 892.14,26.24 573.53,564.24 -154.24,260.35 -362.97,481.74 -613.16,651.85 -116.58,79.26 -239.91,147.48 -364.45,204.14 143.45,170.35 305.84,151.31 463.36,69.52 246.69,-128.11 564.91,-462.12 801.61,-510.44 162.46,-33.15 287.22,20.51 351.28,223.6 28.67,90.89 52.2,129 184.05,67.26 209.95,-98.31 145.53,-80.43 119.16,-276.71 -22.6,-168.11 -6.64,-351.11 53.89,-519.11 151.19,-419.62 518.66,-621.09 962.16,-596.29 197.55,11.04 276.92,115.62 267.67,281.19 -11.38,203.56 -257.09,545.43 -557.91,841.76 -72.99,71.91 -149.82,141.93 -227.81,207.37 -66.83,56.04 -107.7,64.8 14.01,114.77 65.76,26.98 147.75,24.11 243.81,-22.43 428.64,-207.64 583.81,-412.37 990.31,70.94 95,112.96 225.3,138.12 408.05,72.85 231.74,-82.78 532.71,-292.28 924.57,-631.18 148.55,-128.54 344.27,97.62 195.7,226.18 -420.94,364.06 -752.19,591.93 -1019.49,687.42 -316.3,112.97 -552,57.3 -737.35,-163.09 -236.05,-280.66 -378.44,-116.27 -631.71,6.42 -213.87,103.63 -428.71,99.04 -601.95,-33.55 -138,-105.59 -50.47,-116.5 -216.78,-27.98 -86.44,45.99 -167.63,78.54 -239.2,93.15 -206.03,42.04 -354.46,-23.48 -399.76,-245.45 -43.01,-210.74 -565.31,304.88 -747.21,399.34 -309.96,160.95 -628.27,188.15 -891.24,-223.01 -243.26,81.1 -543.45,154.81 -798.57,99.02zm949.41 -476.87c116.13,-51.47 230.36,-113.71 336.81,-186.08 216.87,-147.44 409.23,-351.59 537.79,-581.07 143.96,-257.06 17.89,-226.13 -199.32,-119.4 -132.4,65.06 -282.41,170.63 -429.69,314.9 -171.18,167.68 -240.13,307.14 -255.09,422.48 -6.91,53.33 -2,103.23 9.5,149.17zm2575.45 -367.18c168.28,-165.77 315.62,-338.19 398.37,-472.91 94.42,-153.75 79.69,-157.25 -96.74,-129.96 -307.79,47.65 -498.99,270.96 -525.6,590.89 -26.66,320.41 32,201.08 223.97,11.98zm5909.67 -11013.11l13669.87 0c247.79,0 450,202.21 450,450l0 1202.11c0,247.79 -202.21,450 -450,450l-13669.87 0c-247.79,0 -450,-202.21 -450,-450l0 -1202.11c0,-247.79 202.21,-450 450,-450zm13669.87 300l-13669.87 0c-82.21,0 -150,67.79 -150,150l0 1202.11c0,82.21 67.79,150 150,150l13669.87 0c82.21,0 150,-67.79 150,-150l0 -1202.11c0,-82.21 -67.79,-150 -150,-150zm-18327.05 6857.98c126.81,437.98 -110.66,694.67 -368.43,1008.94 -258.95,315.72 -396.39,483.27 -572.47,516.22 -199.91,37.42 -345.55,-93.06 -620.53,-375.93 -138.8,-142.83 -76.68,-143.14 -215.04,-0.84 -275.5,283.46 -421.25,414.23 -621.35,376.77 -176.08,-32.95 -313.52,-200.5 -572.47,-516.22 -256.37,-312.56 -504.93,-586.34 -361.56,-1031.43l-1125.87 372.87c-187.28,61.66 -281.04,-223.09 -93.76,-284.76l1450.27 -480.3 0 -698.28c-112.88,-163.86 -205.49,-354.39 -284.23,-567.4 -45.57,-123.28 -64.81,-137.88 -144.13,-173.38 -43.14,-19.31 -84.57,-64.96 -128.99,-144.16 -121.23,-216.17 -285.55,-687.84 -308.57,-928.17 -29.63,-308.94 39.62,-476.64 149.6,-522.36 120.63,-50.15 106.7,-83.49 95.62,-180.66 -60.08,-514.54 -201.82,-1728.46 666.31,-2241.88 365.95,-216.42 877.97,-324.65 1386.78,-324.65 508.81,0 1020.83,108.23 1386.78,324.65 868.13,513.42 726.39,1727.34 666.31,2241.88 -14.45,93.59 -50.04,114.68 68.18,167.21 109.62,48.72 206.91,224.36 177.04,535.81 -23.02,240.33 -187.34,712 -308.57,928.17 -109.22,219.29 -179.99,44.43 -265.18,294.5 -79.57,233.57 -175.28,420.75 -292.18,590.45l0 718.83 1388.18 459.74c187.28,61.67 93.52,346.42 -93.76,284.76l-1057.98 -350.38zm-1579.29 501.22c125.44,-81.28 263.78,-150.56 400.46,-219 320.51,-160.5 630.59,-315.79 641.91,-591.55l0.48 -458.78c-659.43,598.44 -1610.64,593.53 -2264.77,-0.01l0 455.08c0,297.54 417.9,483.37 641.32,595.26 136.68,68.44 275.02,137.72 400.46,219 125.74,81.49 54.4,81.49 180.14,0zm1260.51 -498.33c-136.98,251.27 -428.08,397.09 -726.45,546.51 -110.22,55.19 -221.62,110.97 -323.04,172.47 -163.19,98.86 -126.38,66.22 -1.17,195.62 213.55,220.59 318.25,323.86 373.46,313.53 69.48,-13 182.93,-151.31 396.69,-411.92 196.9,-240.1 444.36,-482.89 280.51,-816.21zm-2701.16 0c-167.1,339.91 88.13,581.63 280.51,816.21 213.76,260.61 327.21,398.92 396.69,411.92 53.97,10.1 155.2,-88.31 359.09,-298.7 142.33,-146.8 180.4,-111.05 -2.39,-219.81 -97.2,-57.81 -202.84,-110.73 -307.45,-163.11 -298.37,-149.42 -589.46,-295.24 -726.45,-546.51zm26.73 -3626.18c-117.93,157.23 -356.98,-22.08 -239.06,-179.3 91.03,-121.28 122.56,-386.42 125.84,-534.68 6.53,-294.8 84.71,-387.4 254.05,-383.64 87.38,1.93 181.31,49.27 261.43,83.77 548.11,235.31 1332.58,220.36 1878.3,-14.66 87.41,-38.01 155.28,-67.52 227.39,-69.11 169.33,-3.76 247.52,88.84 254.05,383.64 3.28,148.26 34.81,413.4 125.84,534.68 117.92,157.22 -121.13,336.53 -239.06,179.3 -122.97,-163.8 -173.5,-435.21 -182.75,-637.13 -6.62,-144.54 -28.05,-132.09 -167.59,-74.79 -569,233.65 -1404.89,223.65 -1963.2,-5.86 -77.32,-31.79 -144.1,-117.28 -154.84,116.01 -8.67,188.34 -66.61,450.2 -180.4,601.77zm89.95 -1989.86c-700.33,414.18 -574.38,1492.86 -520.99,1950.08 26.66,228.55 72.31,369.08 -190.6,455.95 -31.63,10.45 -69.01,102.82 -54.62,252.93 20.02,208.94 139.51,505.39 224.82,710.8 29.22,70.36 18.87,100.11 150.29,132.37 60.18,14.77 110.89,69.39 154,215.63 85.26,289.27 211.79,529.21 365.56,719.95 600.4,744.65 1637.14,745.46 2234.89,-29.07 143.43,-185.86 261.64,-416.11 342.63,-690.88 101.16,-343.18 193.71,-101.53 292.14,-320.04 98.62,-218.97 219.75,-559.16 236.97,-738.76 14.39,-150.11 -22.98,-242.48 -54.62,-252.93 -262.91,-86.86 -217.26,-227.4 -190.6,-455.95 53.39,-457.22 179.34,-1535.9 -520.99,-1950.08 -318.4,-188.3 -774.84,-282.47 -1234.44,-282.47 -459.61,0 -916.04,94.17 -1234.44,282.47zm-1895.84 -1544.83l6260.57 0c386.57,0 702.32,315.76 702.32,702.33l0 8248.01c0,386.56 -315.76,702.31 -702.32,702.31l-6260.57 0c-386.55,0 -702.33,-315.75 -702.33,-702.31l0 -8248.01c0,-386.57 315.77,-702.33 702.33,-702.33zm6260.57 300l-6260.57 0c-220.98,0 -402.33,181.35 -402.33,402.33l0 8248.01c0,220.98 181.36,402.31 402.33,402.31l6260.57 0c220.98,0 402.32,-181.33 402.32,-402.31l0 -8248.01c0,-220.99 -181.32,-402.33 -402.32,-402.33zm18442.73 -1616.05l1275.9 -1275.9 0 -1053.79 -2329.69 2329.69 1053.79 0zm1275.9 -993.1l-993.1 993.1 993.1 0 0 -993.1zm-2612.49 993.1l2582.8 -2582.8c-43.53,-80.74 -127.96,-132.61 -220.31,-132.61l-700.87 0 -2715.41 2715.41 1053.79 0zm-1336.59 0l2715.41 -2715.41 -1053.79 0 -2715.41 2715.41 1053.79 0zm-1336.59 0l2715.41 -2715.41 -1053.8 0 -2715.4 2715.41 1053.79 0zm-1336.59 0l2715.4 -2715.41 -1053.79 0 -2715.41 2715.41 1053.8 0zm-1336.6 0l2715.41 -2715.41 -1053.79 0 -2715.41 2715.41 1053.79 0zm-1336.59 0l2715.41 -2715.41 -1053.79 0 -2715.41 2715.41 1053.79 0zm-1336.59 0l2715.41 -2715.41 -1053.79 0 -2715.42 2715.41 1053.8 0zm-1336.6 0l2715.42 -2715.41 -1053.79 0 -2715.41 2715.41 1053.78 0zm-1336.58 0l2715.41 -2715.41 -1053.79 0 -2715.41 2715.41 1053.79 0zm-1336.59 0l2715.41 -2715.41 -1053.79 0 -2715.42 2715.41 1053.8 0zm-1336.6 0l2715.42 -2715.41 -1053.79 0 -2715.42 2715.41 1053.79 0zm-1336.59 0l2715.42 -2715.41 -1053.79 0 -2715.41 2715.41 1053.78 0zm-1336.58 0l2715.41 -2715.41 -1053.8 0 -2715.41 2715.41 1053.8 0zm-1336.6 0l2715.41 -2715.41 -1053.78 0 -2715.41 2715.41 1053.78 0zm-1336.58 0l2715.41 -2715.41 -1053.8 0 -2715.41 2715.41 1053.8 0zm-1336.6 0l2715.41 -2715.41 -1053.79 0 -2715.41 2715.41 1053.79 0zm-1336.59 0l2715.41 -2715.41 -1053.8 0 -2715.41 2715.41 1053.8 0zm-1335.15 0c2.83,-3.78 5.95,-7.4 9.39,-10.84l2704.57 -2704.57 -1053.78 0 -2715.42 2715.41 1055.24 0zm-1338.04 0l2715.42 -2715.41 -1053.79 0 -2715.41 2715.41 1053.78 0zm-1121.64 -214.94l2500.47 -2500.47 -1053.8 0 -1446.67 1446.67 0 1053.8zm0 -1336.6l1163.87 -1163.87 -913.87 0c-136.99,0 -250,113.01 -250,250l0 913.87zm30550.36 17560.34c-185.01,66.27 -285.74,-215 -100.78,-281.26 236.1,-85.02 480.08,-273.93 602.27,-495.35 94.8,-172.64 357.3,-28.5 262.5,144.14 -157.33,285.09 -459.54,522.82 -763.99,632.47zm-5110.47 -2750.31c-93.26,-173.44 170.44,-315.2 263.68,-141.8 291.58,541.81 934.2,997.28 1569.64,897.66 450.2,-70.57 923.6,-467.05 1076.55,-894.79 66.26,-185.72 348.69,-84.99 282.42,100.78 -189.43,529.76 -756.3,1002.02 -1313.27,1089.33 -761.17,119.34 -1527.39,-397.8 -1879.02,-1051.18zm-463.89 1171.1l-1286.72 0c-174.78,966.31 -594.61,1617.81 -967.5,2196.45 -306.18,475.11 -718.38,1108.59 -632.6,1699.54 99.17,683.39 807.57,745.61 1399.38,612.66 749.76,-168.45 1392.13,-701.14 1880.52,-1272.56 401.33,-469.58 768.84,-1045.57 1110.82,-1711.19 -528.31,-480.22 -1087.49,-939.06 -1503.9,-1524.9zm4919.12 12868.25c-10.23,-790.21 -570.39,-1416.18 -1099.78,-2007.69 -113.68,-127.03 -226.06,-252.6 -332.71,-378.87 -6.07,65.16 -14.27,127.63 -24.83,186.95 627.75,782.92 789.84,2291.93 910.54,3282.33 419.39,-216.87 530.31,-641.55 546.78,-1082.72zm41.15 -1387.16c4.53,-221.61 7.88,-445.12 9.71,-669.74 -78.33,-676.49 -1104.11,-1427.65 -1596.52,-1940.58 41.1,248.42 75.99,498.35 99.24,749.09 174.38,301.54 441.99,600.55 717.74,908.66 270.09,301.78 547.35,611.63 769.83,952.57zm5.32 -1743c-24.7,-1391.18 -131.05,-2775.25 -408.53,-3963.85 -272.4,630.12 -832.29,1530.36 -1417.45,1879 270.21,776.86 1275.82,1438.05 1825.98,2084.85zm-649.91 -4815.97c-195.12,-570.77 -444.77,-1073.19 -761.62,-1480.08 -273.58,1112.92 -1156.12,3200.78 -1815.43,4077.7 430.42,1384.08 1190.51,2681.53 646.58,4252.91 -211.23,610.24 -650.48,1073.87 -1285.72,1230.52 436.69,750.61 783.47,1532.2 1115.98,2333.68 255.7,616.35 1907.11,677.27 1663.35,-1304.29 -93.2,-759.36 -292.86,-2958.37 -1063.85,-3264.86 -261.13,-103.55 -163.21,-458.92 62.1,-481.67 137.54,-13.89 162.82,105.72 147.12,-163.41 -36.32,-622.8 -440.95,-2634.19 -477.1,-2807.63 -84.03,-403.21 400.51,-481.07 515.74,-217.03 544.82,-467.14 1108.28,-1485.85 1252.85,-2175.84zm-1180.35 -1925.73c-421.66,-367.53 -835.5,-748.62 -1249.69,-1124.68 -342,649.41 -710.61,1217 -1113.66,1688.6 -555.43,649.85 -1293.08,1239.1 -2140.58,1440.43 -308.71,993.29 -877.81,1664.76 -386.57,2784.27 550.43,1254.35 896.2,2493.77 1310.43,3785.28 231.08,720.48 346.82,1081.3 1250.64,979.37 551.24,-62.18 931.04,-426.11 1108.61,-939.11 389.99,-1126.67 3.93,-2159.15 -379.59,-3184.87 -185.53,-496.18 -370.53,-990.92 -477.16,-1506.11 -65.5,-321.15 422.78,-420.72 488.28,-99.6 4.41,21.3 8.99,42.6 13.7,63.9 545.3,-922.6 1433.74,-2853.56 1575.59,-3887.48z"/></g><text x="0" y="50015" fill="#000000" font-size="5px" font-weight="bold" font-family="'Helvetica Neue', Helvetica, Arial-Unicode, Arial, Sans-serif">Created by Oleksandr Panasovskyi</text><text x="0" y="50020" fill="#000000" font-size="5px" font-weight="bold" font-family="'Helvetica Neue', Helvetica, Arial-Unicode, Arial, Sans-serif">from the Noun Project</text></svg>