<svg xmlns="http://www.w3.org/2000/svg" version="1.1" viewBox="0 0 50000 62500" x="0px" y="0px" fill-rule="evenodd" clip-rule="evenodd"><defs><style type="text/css">
  </style></defs><g><path class="fil0" d="M25304.54 32430.03c131.05,42.6 202.75,183.4 160.15,314.45 -42.6,131.05 -183.4,202.75 -314.45,160.15 -1771.82,-577.23 -3144.56,-1461 -4157.27,-2516.33 -1141.1,-1189.13 -1823.84,-2594.03 -2104.84,-4023.77 -281.69,-1433.24 -448.9,-3129.58 -399.22,-4640.06 42.76,-1299.99 247.96,-2468.69 680.78,-3230.46 146.36,-257.59 391.63,-483.29 714.37,-677.8 1083.77,-653.16 3130.55,-994.82 5178.43,-1013.5 2046.4,-18.67 4111.4,285.18 5233.89,922.96 343.16,194.98 605.8,423.66 764.6,687.14 347.3,576.24 470.81,1813.48 457.71,3194.28 -16.35,1723.62 -240.43,3693.2 -502.99,4847.72 -263.13,1157.04 -1036.44,2493.23 -2157.68,3486.99 -940.68,833.72 -2128.15,1430.83 -3469.55,1488.75l-38.9 1.67 -33.36 -8.5c-1241.01,-316.53 -2404.83,-1034.56 -3311.95,-1979.27 -901.14,-938.48 -1551.18,-2103.52 -1774.77,-3324.33 -218.45,-1192.74 -324.64,-2659.85 -319.43,-3921.1 5.32,-1284.16 131.48,-2373.13 377.72,-2781.5 247.86,-411.06 985.53,-760.21 1931.1,-987.75 918.51,-221.02 2051.32,-338.78 3115.28,-292.62l238.12 10.34 6.99 10965.05c0,137.52 -111.5,249.02 -249.02,249.02 -137.52,0 -249.02,-111.5 -249.02,-249.02l-6.68 -10484.83c-947.77,-18.72 -1931.95,91.9 -2740.43,286.44 -821.04,197.57 -1442.47,469.09 -1618.6,761.19 -199.68,331.15 -302.45,1324.47 -307.42,2525.64 -5.1,1232.74 98.51,2665.63 311.63,3829.3 205.48,1121.91 807.7,2197.61 1643.91,3068.47 836.2,870.85 1904.28,1534.09 3042.02,1831.84 1200.09,-62.29 2269.22,-605.76 3122.28,-1361.83 1042.14,-923.65 1759.23,-2158.28 2001.44,-3223.33 256.4,-1127.45 475.25,-3053.89 491.27,-4742.24 12.31,-1298.53 -91.91,-2442.26 -387.41,-2932.56 -113.19,-187.81 -313.92,-358.5 -582.96,-511.36 -1045.34,-593.94 -3014.93,-876.48 -4983.89,-858.52 -1967.48,17.95 -3917,336 -4924.51,943.2 -251.6,151.64 -437.04,317.44 -538.59,496.16 -389.99,686.38 -576.05,1774.87 -616.34,2999.98 -48.31,1469 115.58,3125.26 391.42,4528.74 263.55,1340.98 903.86,2658.6 1973.98,3773.77 958.6,998.94 2263.12,1837.16 3952.19,2387.43zm-4450.16 4699.19c-137.52,0 -249.02,-111.5 -249.02,-249.02 0,-137.52 111.5,-249.02 249.02,-249.02l8291.23 8.5c137.52,0 249.02,111.5 249.02,249.02 0,137.52 -111.5,249.02 -249.02,249.02l-8291.23 -8.5zm-17711.61 636.85l43714.43 0c167.08,0 319.18,-68.55 429.59,-178.96 110.41,-110.41 178.96,-262.5 178.96,-429.58l0 -1045.59c0,-19.52 -8.18,-37.47 -21.33,-50.62 -13.16,-13.15 -31.11,-21.33 -50.63,-21.33l-44787.6 0c-19.52,0 -37.47,8.18 -50.62,21.33 -13.15,13.15 -21.33,31.1 -21.33,50.62l0 1045.59c0,167.08 68.54,319.17 178.95,429.58 110.41,110.41 262.5,178.96 429.58,178.96zm43714.43 500l-43714.43 0c-305.11,0 -582.31,-124.65 -783.1,-325.44 -200.79,-200.79 -325.43,-477.99 -325.43,-783.1l0 -1045.59c0,-157.55 64.28,-300.61 167.81,-404.14 103.53,-103.53 246.59,-167.81 404.14,-167.81l44787.6 0c157.55,0 300.6,64.28 404.15,167.81 103.53,103.53 167.81,246.59 167.81,404.14l0 1045.59c0,305.11 -124.65,582.31 -325.44,783.1 -200.79,200.79 -478,325.44 -783.11,325.44zm-39734.34 -3570.73c0,138.07 -111.93,250 -250,250 -138.07,0 -250,-111.93 -250,-250l0 -21101.64c0,-511.69 209.16,-976.72 546.11,-1313.67 336.95,-336.95 801.97,-546.11 1313.66,-546.11l33034.73 0c511.69,0 976.7,209.17 1313.65,546.12 336.97,336.95 546.12,801.97 546.12,1313.66l0 21101.64c0,138.07 -111.93,250 -250,250 -138.07,0 -250,-111.93 -250,-250l0 -21101.64c0,-373.66 -153.06,-713.57 -399.64,-960.14 -246.57,-246.57 -586.47,-399.64 -960.13,-399.64l-33034.73 0c-373.67,0 -713.57,153.06 -960.14,399.63 -246.57,246.57 -399.63,586.48 -399.63,960.15l0 21101.64zm1246.58 -2374.16c0,138.07 -111.93,250 -250,250 -138.07,0 -250,-111.93 -250,-250l0 -18060.23c0,-465.05 90.72,-786.76 316.73,-1006.16 223.85,-217.3 552.88,-305.75 1030.98,-305.75l31640.84 0c471.07,0 772.75,45.36 982.67,226.36 218.32,188.25 289.89,473.88 289.89,946.03l0 18199.75c0,138.07 -111.93,250 -250,250 -138.07,0 -250,-111.93 -250,-250l0 -18199.75c0,-318.12 -28.66,-493.7 -116.07,-569.07 -95.81,-82.61 -305.44,-103.32 -656.49,-103.32l-31640.84 0c-344.03,0 -563.87,47.21 -683.32,163.17 -117.31,113.88 -164.39,323.16 -164.39,648.74l0 18060.23z"/></g><text x="0" y="50015" fill="#000000" font-size="5px" font-weight="bold" font-family="'Helvetica Neue', Helvetica, Arial-Unicode, Arial, Sans-serif">Created by Oleksandr Panasovskyi</text><text x="0" y="50020" fill="#000000" font-size="5px" font-weight="bold" font-family="'Helvetica Neue', Helvetica, Arial-Unicode, Arial, Sans-serif">from the Noun Project</text></svg>