<svg xmlns="http://www.w3.org/2000/svg" xmlns:xlink="http://www.w3.org/1999/xlink" xmlns:xodm="http://www.corel.com/coreldraw/odm/2003" xml:space="preserve" version="1.1" style="shape-rendering:geometricPrecision;text-rendering:geometricPrecision;image-rendering:optimizeQuality;" viewBox="0 0 100000 125000" x="0px" y="0px" fill-rule="evenodd" clip-rule="evenodd"><defs><style type="text/css">
   
    .fil0 {fill:black;fill-rule:nonzero}
   
  </style></defs><g><path class="fil0" d="M52918.47 98678.35c97.08,257.8 -33.22,545.5 -291.02,642.58 -257.8,97.08 -545.5,-33.22 -642.58,-291.02 -1348.61,-3549.07 -3600.12,-6555.17 -6073.74,-9857.83 -887.47,-1184.9 -1802.89,-2407.12 -2688.59,-3665.02 -445.9,-633.29 -914.57,-1365.06 -1302.61,-2212.23 -391.38,-854.48 -694.97,-1817.19 -801.07,-2898.35 -377.02,-3841.76 -1061.24,-6666.29 -1663.08,-9150.76 -910.9,-3760.33 -1637.1,-6758.21 -881.93,-11303.39 177.87,-1070.52 291.56,-2201.38 322.96,-3307.52 29.35,-1034.42 -13.12,-2049.98 -142.3,-2976.97 -290.62,-2085.44 101.79,-3632.27 846.59,-4585.21 406.27,-519.82 916.01,-866.77 1481.39,-1034.43 563.57,-167.12 1174.79,-153.69 1786.3,46.6 1135.58,371.93 2278.28,1397.44 3088.5,3114.91 757.45,1605.65 1417.37,4072.82 1760.36,6519.35 225.12,1605.84 314.81,3211.14 207.86,4571.16 1143.63,1942.53 1867.14,3906.28 2346.14,5790.82 162.37,638.82 296.54,1269.12 409.5,1886.76 53.71,-428.7 97.99,-847 128.52,-1254.61 303.1,-4046.44 -660.44,-10661.23 -1510.71,-16498.45 -364.76,-2504.13 -708.79,-4865.83 -925.7,-6842.76 -241.25,-2198.77 -448.86,-4279.83 -653.25,-6328.88 -387.01,-3879.55 -762.44,-7642.98 -1383.88,-12308.51 -299.87,-2251.29 178.92,-4029.06 1061.14,-5238.23l-30304.7 8350.06c429.97,2124.47 48.7,4249.01 -941.16,6012.06 -1066.61,1899.75 -2839.68,3381.55 -5066.34,3995.07l-1.95 0c-54,14.87 -91.44,25.05 -111.43,30.25 -2191.68,571.08 -4405.2,193.47 -6224.17,-885.66 -1816.29,-1077.54 -3239.39,-2854.2 -3853.55,-5083.15l0 -1.95c-15.52,-56.39 -26.48,-96.75 -32.37,-119.37 -594.59,-2281.86 -233.63,-4595.23 830.59,-6490.72 1066.61,-1899.75 2839.69,-3381.55 5066.34,-3995.08l1.95 0c53.85,-14.83 91.44,-25.05 111.43,-30.25 2191.68,-571.08 4405.21,-193.47 6224.19,885.66 1716.06,1018.09 3081,2660.38 3744.42,4718.46l32834.94 -9047.23c68.17,-20.74 136.77,-39.64 205.75,-56.69l32978.45 -9086.78c-429.97,-2124.47 -48.69,-4249 941.17,-6012.05 1066.61,-1899.75 2839.68,-3381.55 5066.34,-3995.07l1.95 0c53.85,-14.83 91.43,-25.04 111.43,-30.25 2191.68,-571.08 4405.2,-193.47 6224.18,885.66 1816.28,1077.54 3239.38,2854.21 3853.54,5083.16l0 1.95c15.51,56.32 26.45,96.62 32.37,119.36 594.59,2281.86 233.63,4595.23 -830.59,6490.72 -1066.61,1899.75 -2839.68,3381.55 -5066.34,3995.08l-1.95 0c-53.85,14.83 -91.44,25.05 -111.43,30.25 -2191.67,571.08 -4405.21,193.47 -6224.18,-885.66 -1716.08,-1018.08 -3081.01,-2660.37 -3744.43,-4718.48l-30510.94 8406.89c1592.22,749.23 2992.46,2570.61 3474.36,5625.5 215.81,1368.03 634.79,3562.69 1059.1,5785.35 115.47,604.88 231.34,1211.83 343.7,1805.34 1906.59,-875.8 3891.17,-1053.34 5693.68,-500.86 1853.9,568.23 3502.21,1903.72 4660.07,4040.07 82.65,152.5 163.92,311.61 243.68,477.31l4.36 9.06c1354.44,-352.51 3111.15,-459.72 4786.21,50.72 1422.59,433.51 2782.66,1306.24 3789.16,2839.79 667.94,1017.7 1168.64,1857.98 1554.79,2681.9 5028.63,-2170.38 6780.08,617.78 8645.05,3587.02 80.08,127.5 160.41,255.38 241.23,383.16 1225.19,1936.93 1994.24,4271.96 2506.15,6584.78 505.41,2283.47 758.79,4529.44 954.01,6345.6 2095.12,9117.28 1541.45,14689.44 808.45,22064.84 -62.16,625.52 -125.59,1263.59 -177.56,1800.05 -151.73,1566.22 -322.5,2977.36 -490.46,4365.37 -435.83,3601.67 -853.11,7050.07 -743.54,11141.58 6.47,275.06 -211.27,503.3 -486.33,509.77 -275.06,6.47 -503.3,-211.27 -509.77,-486.33 -111.94,-4180.12 308.42,-7653.96 747.46,-11282.2 173.61,-1434.64 350.1,-2893.13 490.46,-4341.95 67,-691.61 122.82,-1253.08 177.56,-1803.95 724.47,-7289.51 1271.62,-12794.72 -795.5,-21773.45l-6.5 -28.22 -3.26 -30.38c-193.62,-1802.5 -444.02,-4035.5 -937.68,-6265.89 -489.92,-2213.49 -1220.83,-4440.16 -2377.25,-6268.36 -80.82,-127.78 -161.15,-255.66 -241.23,-383.16 -1628.3,-2592.43 -3157.5,-5027 -7415.23,-3197.34 36.57,98.97 71.83,198.55 105.82,299.02 303.9,898.29 502.55,1855.62 659.67,3066.63 0.94,6.27 1.74,12.6 2.46,18.96 23.83,184.6 46.71,375.08 68.86,572.14 199.53,1365.25 596.83,2244.12 1005.58,3148.11 678.48,1500.52 1386.35,3066.04 1386.35,6788.1 0,797.65 -2.26,-31.3 -1.51,248.1 2.2,810.11 4.14,1525.19 -203.06,2961.37 -38.83,272.9 -291.55,462.66 -564.45,423.83 -192.61,-27.41 -343.78,-161.37 -402.43,-333.76 -1324.48,-3147.43 -1670.9,-7114.37 -1984.81,-10710.33 -56.81,-650.87 -112.7,-1290.96 -128.25,-1458.18 -29.96,-321.97 -60.7,-626.41 -92.97,-915.83 -28.3,-194.91 -53.1,-399.14 -73.88,-614.15 -148.54,-1141.84 -334.78,-2040.82 -616.88,-2874.67 -394.3,-1165.53 -986.48,-2226.61 -1937.29,-3675.3 -863.4,-1315.51 -2026.77,-2063.15 -3242.28,-2433.55 -1403.2,-427.6 -2880.51,-360.71 -4058.92,-83.14 563.71,1201.82 1028.53,2280.08 1397.09,3405.62 464.46,1418.38 772.87,2899.23 927.85,4772.12 239.2,2890.63 513.14,5534.84 887.66,7721.45 368.34,2150.5 829.88,3851.13 1446.08,4894.25 140.23,237.31 61.53,543.37 -175.78,683.6 -237.31,140.23 -543.37,61.53 -683.6,-175.78 -683.92,-1157.76 -1183.43,-2970.86 -1571.08,-5234.11 -381.47,-2227.14 -658.53,-4896.81 -899.38,-7807.37 -148.31,-1792.34 -441.03,-3202.06 -880.97,-4545.56 -403.37,-1231.82 -933.17,-2418.48 -1589.55,-3794.47 -10.08,-18.1 -19.12,-37.01 -27.03,-56.65 -56.51,-118.29 -113.95,-237.99 -172.32,-359.26 -71.1,-147.71 -145.86,-293.82 -224.14,-438.25 -1024.48,-1890.25 -2464.53,-3066.26 -4074.13,-3559.61 -1609.75,-493.39 -3402.23,-308.95 -5129.5,522.45 -26.72,12.86 -53.53,25.94 -80.42,39.22 155.49,832.35 298.79,1617.32 417.88,2307.18 143.63,832.05 344.87,1655.57 546.38,2480.29 68.6,280.77 137.24,561.68 203.42,840.93 2717.64,2978.6 2847.54,7447.08 2971.09,11710.89 59.89,2067.37 118.41,4084.74 477.05,5815.47 143.79,553.43 293.09,1107.37 448.49,1661.05 74.43,265.35 -80.35,540.81 -345.7,615.24 -265.35,74.43 -540.81,-80.35 -615.24,-345.7 -36.69,-130.71 -73.02,-261.42 -109.04,-392.12 -137.41,-412.19 -250.74,-842.59 -344.71,-1288.25 -421.04,-1620.37 -794.53,-3234.08 -1133.58,-4823.22 -449.41,-2106.36 -844.62,-4207.56 -1211.6,-6230.39 -153.8,-847.74 -269.27,-1648.4 -384.62,-2448.31 -135.19,-937.46 -270.25,-1873.98 -454.05,-2814.59 -72.26,-369.8 -151.98,-731.5 -235.25,-1089.23 -2.62,-9.83 -4.9,-19.72 -6.91,-29.66 -74.24,-318.01 -151.2,-632.96 -228.11,-947.73 -208.59,-853.7 -416.9,-1706.16 -562,-2546.71 -250.26,-1449.64 -601.18,-3287.76 -948.46,-5106.91 -419.6,-2197.96 -833.92,-4368.27 -1063.02,-5820.51 -441.53,-2799 -1696.29,-4388.51 -3083.21,-4949.3 -527.66,-213.36 -1075.27,-276.6 -1601.66,-199.67 -528.64,77.25 -1036.96,294.94 -1483.61,643.04 -1174.65,915.48 -1937.04,2724.78 -1597.87,5271.18 624.56,4688.96 1000.38,8456.23 1387.78,12339.75 200.14,2006.44 403.45,4044.33 653.25,6321.08 213.18,1942.94 557.13,4304.09 921.8,6807.6 857.68,5888.05 1829.6,12560.42 1518.53,16713.29 -88.19,1177.47 -291.78,2457.93 -508.58,3821.57 -48.37,304.26 -97.42,612.77 -145.96,925.35 -1.18,9.34 -2.62,18.59 -4.31,27.79 -208.16,1342.27 -406.36,2759.6 -501.46,4240.08 -17.25,275.06 -254.24,484.05 -529.3,466.8 -275.06,-17.25 -484.05,-254.24 -466.8,-529.3 96,-1494.35 295.07,-2925.06 504.9,-4280.71 -161.11,-1568.67 -388.56,-3310.94 -851.37,-5131.85 -369.13,-1452.29 -888.44,-2951.31 -1644.51,-4445.26 -105.54,191.98 -329.6,298.22 -553.16,245.26 -268.59,-63.63 -434.73,-332.97 -371.1,-601.56 345.72,-1449.68 292.48,-3549.61 -4.75,-5669.8 -329.84,-2352.73 -957.62,-4710.8 -1674.42,-6230.29 -683.49,-1448.85 -1602.44,-2299.21 -2494.76,-2591.47 -417.61,-136.78 -826.89,-148.36 -1196.44,-38.78 -367.74,109.05 -703.88,340.59 -977.49,690.67 -590.57,755.6 -893.42,2041.64 -643.47,3835.21 136.29,977.98 181.1,2049.52 150.12,3141.03 -32.83,1156.65 -150.64,2332.66 -334.68,3440.34 -722.64,4349.4 -17.8,7259.11 866.31,10908.85 609.71,2516.96 1302.87,5378.41 1686.5,9287.48 94.21,959.99 365.34,1818.23 715.15,2581.95 353.17,771.06 792.27,1454.89 1212.75,2052.07 916.51,1301.66 1806.38,2489.77 2669.07,3641.58 2519.53,3363.96 4812.82,6425.85 6210.46,10103.93zm-39180.09 -67049.25c1.07,-137.52 113.45,-248.14 250.97,-247.07 137.52,1.07 248.14,113.45 247.07,250.97 -8.62,974.06 -272.81,1913.11 -742.27,2727.57 -469.39,814.33 -1144.03,1504.52 -1973.77,1981.37 -119.19,68.49 -271.35,27.39 -339.84,-91.8 -68.49,-119.19 -27.39,-271.35 91.8,-339.84 752.15,-432.26 1364.05,-1058.51 1790.17,-1797.77 427.46,-741.6 668.02,-1596.6 675.87,-2483.43zm82005.82 -21916.28c18.87,-136.45 144.8,-231.76 281.25,-212.89 136.45,18.87 231.76,144.8 212.89,281.25 -117.28,843.92 -429.58,1641.76 -900.42,2328.52 -466.54,680.51 -1088.7,1252.55 -1831.09,1653.18 -121.35,65.25 -272.64,19.78 -337.89,-101.57 -65.25,-121.35 -19.78,-272.64 101.57,-337.89 670.77,-361.98 1233.21,-879.29 1655.31,-1494.98 428.02,-624.31 711.87,-1349.21 818.38,-2115.62zm-79724.97 19913.03l-0.09 -0.3c-1.5,-5.43 -2.87,-10.86 -4.18,-16.3 -12.25,-47.03 -20.74,-78.98 -25.76,-97.33l-0.5 0.14c-542.81,-1969.99 -1798.51,-3539.04 -3400.42,-4489.4 -1599.23,-948.76 -3543.38,-1281.27 -5466.37,-780.2 -48.6,12.66 -80.87,21.19 -97.9,25.85l0.14 0.5c-1958.42,539.62 -3519.75,1846.2 -4460.86,3522.42 -943.48,1680.45 -1263.65,3730.72 -736.85,5752.44 13.45,51.66 22.66,86.45 27.97,105.84l0.5 -0.14c542.81,1969.99 1798.52,3539.04 3400.43,4489.39 1599.22,948.76 3543.37,1281.26 5466.35,780.2 48.57,-12.65 81,-21.23 97.9,-25.85l-0.14 -0.5c1958.42,-539.61 3519.75,-1846.2 4460.86,-3522.41 942.23,-1678.22 1262.75,-3725.25 738.92,-5744.35zm67913.6 -18714.95l0.29 1c1.57,5.69 3,11.38 4.36,17.07 12.12,46.49 20.56,78.33 25.56,96.58l0.5 -0.14c542.81,1970 1798.52,3539.05 3400.43,4489.4 1599.22,948.76 3543.38,1281.26 5466.36,780.2 48.6,-12.66 80.87,-21.19 97.9,-25.85l-0.14 -0.5c1958.42,-539.62 3519.75,-1846.2 4460.86,-3522.42 943.48,-1680.45 1263.65,-3730.72 736.85,-5752.44 -13.42,-51.54 -22.65,-86.39 -27.97,-105.83l-0.5 0.14c-542.81,-1970 -1798.51,-3539.04 -3400.42,-4489.4 -1599.22,-948.75 -3543.38,-1281.27 -5466.36,-780.2 -48.6,12.66 -80.87,21.19 -97.9,25.85l0.14 0.5c-1958.42,539.61 -3519.75,1846.2 -4460.86,3522.41 -942.12,1678.02 -1262.68,3724.76 -739.1,5743.63zm-35702.32 14159.4c-3.77,-137.52 104.66,-252.09 242.18,-255.86 137.52,-3.77 252.09,104.66 255.86,242.18 35.18,1181.84 289.41,2015.2 808.55,2501.75 511.72,479.61 1307,636.82 2432.6,474.71 136.45,-19.41 262.82,75.46 282.23,211.91 19.41,136.45 -75.46,262.82 -211.91,282.23 -1284.84,185.04 -2215.02,-15.39 -2844.72,-605.57 -622.28,-583.22 -925.52,-1531.83 -964.79,-2851.35zm-6531.49 26548.71c-23.73,-135.91 67.21,-265.33 203.12,-289.06 135.91,-23.73 265.33,67.21 289.06,203.12 99.22,564.24 310.49,1776.76 298.55,2875.45 -13.01,1196.87 -297.78,2253.11 -1263.21,2312.89 -137.52,8.09 -255.58,-96.85 -263.67,-234.37 -8.09,-137.52 96.85,-255.58 234.37,-263.67 604.1,-37.41 784.17,-870.99 794.47,-1818.75 11.37,-1045.96 -195.52,-2233.06 -292.69,-2785.61zm42415.41 -1505.59c-136.45,19.41 -262.82,-75.46 -282.23,-211.91 -19.41,-136.45 75.46,-262.82 211.91,-282.23 345.37,-50.32 756.69,-44.92 1127.84,19.69 350.4,60.98 673,176.6 888.54,350.71 107.33,86.29 124.38,243.26 38.09,350.59 -86.29,107.33 -243.26,124.38 -350.59,38.09 -145.49,-117.52 -387.05,-199.7 -660.02,-247.21 -321.85,-56.02 -676.85,-60.96 -973.54,-17.73zm-10400.42 -5923.48c-135.91,23.73 -265.33,-67.21 -289.06,-203.12 -23.73,-135.91 67.21,-265.33 203.12,-289.06 287.5,-50.63 631.31,-66.72 982.56,-4.72 289.17,51.03 583.75,154.97 857.65,335.72 114.88,76.04 146.35,230.83 70.31,345.71 -76.04,114.88 -230.83,146.35 -345.71,70.31 -210.43,-138.86 -440.41,-219.36 -668.19,-259.56 -288.08,-50.85 -572.14,-37.28 -810.68,4.72zm-9590.27 -1300.46c-130.52,43.15 -271.31,-27.68 -314.46,-158.2 -43.15,-130.52 27.68,-271.31 158.2,-314.46 472.91,-157.71 836.43,-259.93 1206.66,-308.85 375.65,-49.63 748.01,-44.15 1232.4,14.48 136.99,16.18 234.93,140.36 218.75,277.35 -16.18,136.99 -140.36,234.93 -277.35,218.75 -445.32,-53.9 -780.7,-59.86 -1109.34,-16.44 -334.08,44.15 -671.54,139.53 -1114.86,287.37zm-10742.54 1456.7c-125.12,57.17 -272.91,2.08 -330.08,-123.04 -57.17,-125.12 -2.08,-272.91 123.04,-330.08 405.9,-186.41 929.68,-306.01 1431.43,-345.7 506.21,-40.04 1000.69,0.84 1344.87,135.61 128.36,50.15 191.75,194.88 141.6,323.24 -50.15,128.36 -194.88,191.75 -323.24,141.6 -272.13,-106.56 -686.85,-137 -1124.17,-102.41 -449.88,35.58 -912.78,139.73 -1263.45,300.78zm26444.22 7637.38c205.59,2164.17 475.75,4383.44 1001.44,6387.08 1,-144.35 0.61,-286.49 0.22,-431.86 -1.19,-442.25 -2.39,381 -2.39,-248.1 0,-2961.26 -471.03,-4466.36 -999.27,-5707.12zm-20493.28 -9562.89c87.41,543.81 166.03,1089 244.7,1634.49 118.14,819.27 236.41,1639.29 376.8,2413.15 257.05,1416.88 530.47,2883.36 834,4393.61 -94.39,-3000.85 -273.59,-6045.24 -1455.5,-8441.25z"/></g><text x="0" y="100015" fill="#000000" font-size="5px" font-weight="bold" font-family="'Helvetica Neue', Helvetica, Arial-Unicode, Arial, Sans-serif">Created by Oleksandr Panasovskyi</text><text x="0" y="100020" fill="#000000" font-size="5px" font-weight="bold" font-family="'Helvetica Neue', Helvetica, Arial-Unicode, Arial, Sans-serif">from the Noun Project</text></svg>