<svg xmlns="http://www.w3.org/2000/svg" xmlns:xlink="http://www.w3.org/1999/xlink" xml:space="preserve" version="1.1" style="shape-rendering:geometricPrecision;text-rendering:geometricPrecision;image-rendering:optimizeQuality;" viewBox="0 0 50000 62500" x="0px" y="0px" fill-rule="evenodd" clip-rule="evenodd"><defs><style type="text/css">
   
    .fil0 {fill:black;fill-rule:nonzero}
   
  </style></defs><g><path class="fil0" d="M35912.2 17129.25c-1526.45,-1469.38 -3569.75,-2127.6 -5581.68,-2092 -2127.76,37.66 -4212.7,849 -5609.03,2295.65 -1308.89,1356.06 -2015.15,2824.92 -2229.01,4305.57 -234.14,1621.09 118.29,3268.72 913.79,4807.43l164.03 317.27 -13721.57 14216.05 -2.76 2662.84 3735.36 955.11 517.59 -1976.46 1986.26 -554.68 -165.87 -2709.2 3484.3 -533.8 1133.09 -1173.91 983.71 -1995.55 1848.5 -1020.89 161.62 -1912.38 1932.07 -170.94 1975.13 -2050.42 296.48 96.58c1463,476.58 2971.66,579.27 4447.03,182.76 1350.29,-362.9 2681.23,-1145.72 3934.96,-2444.63l5.86 -7.82 0.82 0.8c967.28,-1005.44 1620.27,-2398.95 1895.52,-3910.43 -906.66,-57.94 -1807.36,-237.41 -2675.71,-538.79 -87.02,178.74 -203,346.81 -348.07,497.11 -373.08,386.52 -870.42,585.31 -1371.07,594.16 -499.67,8.85 -1002.77,-171.9 -1388.65,-544.35l-3469.4 -3348.73c-386.53,-373.08 -585.31,-870.41 -594.17,-1371.06 -8.83,-499.68 171.91,-1002.79 544.37,-1388.67 373.08,-386.52 870.4,-585.31 1371.06,-594.16 499.67,-8.83 1002.78,171.91 1388.66,544.37l3469.4 3348.72c386.52,373.08 585.31,870.4 594.16,1371.06 0.67,38.16 0.22,76.34 -1.31,114.49 838.86,298.53 1711.34,472.92 2589.2,523.81 23.49,-253.76 36.54,-509.43 38.75,-765.84 18.02,-2086.35 -679.99,-4210.45 -2246.4,-5722.39l-7.82 -5.86 0.8 -0.82zm-7130.1 -2939.43c-284.81,-74.41 -596.58,-42.55 -867.93,113.69l-0.51 0.29c-67.82,39.1 -130.23,84.38 -186.92,134.78 345.49,-102.27 698.13,-185.42 1055.36,-248.76zm-2188.57 665.19c43.95,-186.21 114.84,-365.66 210.92,-531.81 155.17,-268.34 376.91,-503.29 657.91,-677.47l2.79 -2.79 51.64 -29.77c465.91,-268.57 997.84,-322.55 1479.47,-193.16 379.42,101.93 728.83,317.85 991.58,632.47 108.89,-5.6 217.93,-9.4 327.06,-11.33 1681.19,-29.75 3385.34,375.46 4859.3,1270.01 -117.37,-289.56 -253.72,-570.86 -409.91,-841.8 -1058.67,-1836.48 -2842.45,-3035.8 -4789.16,-3558.8 -2057.65,-552.8 -4286.82,-350.19 -6028.14,653.63 -1631.19,940.33 -2715.7,2157.04 -3331.25,3522.2 -672.48,1491.43 -788.94,3171.84 -449.79,4871.15l69.76 349.49 -17117.73 9867.85 -739.79 2561.24 3324.48 1950.04 1044.28 -1756.91 2064.1 16.16 589.43 -2648.19 3494.59 450.27 1411.59 -813.75 1498.64 -1647.36 2060.08 -470.29 684.06 -1792.99 1902.8 369.73 1478.13 -854.09c-458.53,-1315.58 -622.34,-2682.74 -426.17,-4040.89 242.95,-1682.07 1034.92,-3339.99 2498.53,-4856.35 726.1,-752.26 1613.1,-1352.76 2590.8,-1786.49zm-8687 8634.69c119.19,-68.49 271.35,-27.39 339.84,91.8 68.49,119.19 27.39,271.35 -91.8,339.84l-13682.36 7887.46c-119.19,68.49 -271.35,27.39 -339.84,-91.8 -68.49,-119.19 -27.39,-271.35 91.8,-339.84l13682.36 -7887.46zm4402.22 2982.6l-1681.28 971.46 -1443.8 -280.53 -574.42 1505.64 -2274.85 519.33 -1388.52 1526.31 -1845.39 1063.83 -2925.31 -376.91 -566.76 2546.38 -2294.99 -17.96 -1258.75 2117.74 -4848.64 -2844.07 1065.88 -3690.18 16849.14 -9713.03c-294.84,-1777.32 -131.07,-3537.04 584.52,-5124.08 697.95,-1547.92 1917.83,-2921.84 3745.31,-3975.32 1795.7,-1035.17 4032.29,-1323.22 6153.26,-901.82 200.83,-402.94 430.4,-795.68 688.77,-1175.21 319.41,-469.22 683.34,-918.33 1091.91,-1341.62 1941.64,-2011.61 4515.33,-3045.81 7106.74,-3091.66 2590.43,-45.85 5198.15,896.31 7209.12,2837.32 2011.61,1941.64 3045.79,4515.33 3091.66,7106.74 45.84,2590.43 -896.32,5198.16 -2837.33,7209.11 -1897.21,1965.57 -4397.85,2997.76 -6928.85,3086.79 -292.6,1767.49 -1049.73,3411.88 -2191.2,4594.48l-5.86 7.82 -0.89 -0.87c-1386.99,1434.81 -2872.46,2303.5 -4389.16,2711.13 -1570.51,422.09 -3165.55,347.91 -4713.35,-105.57l-1806.26 1875.09 -1463.8 129.52 -135.69 1605.62 -2043.81 1128.76 -913.3 1852.72 -1477.79 1531.03 -2914.03 446.44 159.35 2602.53 -2212.32 617.82 -624.29 2383.93 -5444.7 -1392.17 3.98 -3844.12 13506.75 -13993.49c-17.27,-36.25 -34.23,-72.58 -51.05,-108.93zm8093.01 -16479.46c2119.41,610.58 4055.54,1950.34 5225.81,3980.42 226,392.06 412.74,792.01 562.55,1196.4 141.11,380.92 251.95,770.53 334.26,1165.53 28.89,27.08 57.65,54.38 86.23,81.97l7.82 5.86 -0.9 0.92c1773.69,1716.26 2564.37,4105.04 2544.19,6442.2 -2.2,255.01 -14.09,509.53 -35.43,762.61 2286.74,-111.43 4537.77,-1060.31 6253.73,-2838.1 1789.2,-1853.67 2657.68,-4256.76 2615.45,-6643.49 -42.22,-2385.72 -994.87,-4755.66 -2847.9,-6544.24 -1853.69,-1789.21 -4256.77,-2657.68 -6643.5,-2615.44 -2385.73,42.21 -4755.67,994.87 -6544.24,2847.9 -376.12,389.67 -711.96,804.3 -1007.53,1238.5 -202.66,297.69 -386.16,604.59 -550.54,918.96zm-46.93 8549.39c198.93,391.07 427.09,770.86 684.42,1135.98 335.6,476.18 720.02,926.94 1153.03,1344.89 760.86,734.4 1614.33,1313.58 2521.2,1738.39 -47.84,-211.14 -155.26,-410.96 -321.78,-571.69l-3469.4 -3348.72c-162.55,-156.89 -360.28,-256.35 -567.47,-298.85zm4240.94 5042.1c-1066.49,-468.4 -2069.62,-1130.09 -2956.61,-1986.23 -472.08,-455.66 -889.81,-945.13 -1253.03,-1460.51 -328.82,-466.55 -613.67,-954.87 -854.46,-1459.08 -86.66,51.25 -167.87,114.74 -240.97,190.48 -220.65,228.61 -327.73,526.81 -322.49,823.05 5.23,295.25 122.46,588.54 350.41,808.56l3469.4 3348.73c228.6,220.64 526.79,327.71 823.03,322.47 295.25,-5.22 588.55,-122.46 808.57,-350.4 70.21,-72.74 128.9,-152.54 176.15,-237.07zm-12722.85 7300.12c95.46,-99.24 253.3,-102.3 352.54,-6.84 99.24,95.46 102.3,253.3 6.84,352.54l-10710.76 11096.73c-95.46,99.24 -253.3,102.3 -352.54,6.84 -99.24,-95.46 -102.3,-253.3 -6.84,-352.54l10710.76 -11096.73z"/></g><text x="0" y="50015" fill="#000000" font-size="5px" font-weight="bold" font-family="'Helvetica Neue', Helvetica, Arial-Unicode, Arial, Sans-serif">Created by Oleksandr Panasovskyi</text><text x="0" y="50020" fill="#000000" font-size="5px" font-weight="bold" font-family="'Helvetica Neue', Helvetica, Arial-Unicode, Arial, Sans-serif">from the Noun Project</text></svg>