<svg xmlns="http://www.w3.org/2000/svg" data-name="Layer 3" viewBox="0 0 64 80" x="0px" y="0px"><path d="M26,29H24.585a10.915,10.915,0,0,0-.981-2.361l1-1a1,1,0,0,0,0-1.414l-2.828-2.828a1,1,0,0,0-1.414,0l-1,1c-.262-.147-.535-.268-.807-.392a11,11,0,1,0-9.108,0c-.272.124-.545.245-.807.392l-1-1a1,1,0,0,0-1.414,0L3.394,24.222a1,1,0,0,0,0,1.414l1,1A10.915,10.915,0,0,0,3.415,29H2a1,1,0,0,0-1,1v4a1,1,0,0,0,1,1H3.415A10.915,10.915,0,0,0,4.4,37.361l-1,1a1,1,0,0,0,0,1.414l2.828,2.828a1,1,0,0,0,1.414,0l1-1c.262.146.535.268.807.392a11,11,0,1,0,9.108,0c.272-.124.545-.246.807-.392l1,1a1,1,0,0,0,1.414,0l2.828-2.828a1,1,0,0,0,0-1.414l-1-1A10.915,10.915,0,0,0,24.585,35H26a1,1,0,0,0,1-1V30A1,1,0,0,0,26,29ZM12,19a1,1,0,0,0-1,1v.479a8.962,8.962,0,0,1-2.9-1.688A5.223,5.223,0,0,1,13.1,15h1.8a5.223,5.223,0,0,1,5,3.791A8.962,8.962,0,0,1,17,20.479V20a1,1,0,0,0-1-1Zm2-6a3,3,0,1,1,3-3A3,3,0,0,1,14,13ZM14,3a8.991,8.991,0,0,1,7.407,14.1,7.256,7.256,0,0,0-3.856-3.588,5,5,0,1,0-7.1,0A7.256,7.256,0,0,0,6.593,17.1,8.991,8.991,0,0,1,14,3ZM8.378,59.017A5.191,5.191,0,0,1,13.1,56h1.8a5.191,5.191,0,0,1,4.721,3.017,8.961,8.961,0,0,1-11.244,0ZM14,54a3,3,0,1,1,3-3A3,3,0,0,1,14,54Zm9-2a8.943,8.943,0,0,1-1.915,5.531,7.148,7.148,0,0,0-3.539-3.012,5,5,0,1,0-7.092,0,7.148,7.148,0,0,0-3.539,3.012A8.976,8.976,0,0,1,11,43.521V44a1,1,0,0,0,1,1h4a1,1,0,0,0,1-1v-.479A9.026,9.026,0,0,1,23,52Zm2-19H23.8a1,1,0,0,0-.981.8,8.884,8.884,0,0,1-1.311,3.157,1,1,0,0,0,.126,1.26l.852.852-1.414,1.414-.852-.852a1,1,0,0,0-1.26-.126A8.884,8.884,0,0,1,15.8,40.818a1,1,0,0,0-.8.981V43H13V41.8a1,1,0,0,0-.8-.981,8.884,8.884,0,0,1-3.157-1.311,1,1,0,0,0-1.26.126l-.852.852L5.515,39.071l.852-.852a1,1,0,0,0,.126-1.26A8.884,8.884,0,0,1,5.182,33.8,1,1,0,0,0,4.2,33H3V31H4.2a1,1,0,0,0,.981-.8,8.862,8.862,0,0,1,1.312-3.158,1,1,0,0,0-.127-1.26l-.852-.852,1.414-1.414.852.852a1,1,0,0,0,1.26.126A8.9,8.9,0,0,1,12.2,23.181a1,1,0,0,0,.8-.98V21h2v1.2a1,1,0,0,0,.8.98,8.9,8.9,0,0,1,3.158,1.312,1,1,0,0,0,1.26-.126l.852-.852,1.414,1.414-.852.852a1,1,0,0,0-.127,1.26A8.862,8.862,0,0,1,22.818,30.2a1,1,0,0,0,.981.8H25Z"/><path d="M14,25a7,7,0,1,0,7,7A7.008,7.008,0,0,0,14,25Zm0,12a5,5,0,1,1,5-5A5.006,5.006,0,0,1,14,37Z"/><path d="M62.707,22.293l-6-6A1,1,0,0,0,56,16H47.159A10,10,0,1,0,39,21.949v5.637l-1.293-1.293A1,1,0,0,0,36,27v1H30a1,1,0,0,0-1,1v6a1,1,0,0,0,1,1h6v1a1,1,0,0,0,.617.924A.987.987,0,0,0,37,38a1,1,0,0,0,.707-.293L39,36.414V43H32a3,3,0,0,0-3,3V60a3,3,0,0,0,3,3H50a3,3,0,0,0,3-3V48h9a1,1,0,0,0,1-1V23A1,1,0,0,0,62.707,22.293ZM57,19.414,59.586,22H57ZM30,12a8,8,0,1,1,8,8A8.009,8.009,0,0,1,30,12Zm7,22H31V30h6a1,1,0,0,0,.937-.649L40.586,32l-2.649,2.649A1,1,0,0,0,37,34ZM51,60a1,1,0,0,1-1,1H32a1,1,0,0,1-1-1V46a1,1,0,0,1,1-1H42a1.006,1.006,0,0,0,.641-.231L47,41.135V44a1,1,0,0,0,1,1h2a1,1,0,0,1,1,1Zm2-14a3,3,0,0,0-3-3H49V39a1,1,0,0,0-1.641-.769L41.638,43H41V34.414l1.707-1.707a1,1,0,0,0,0-1.414L41,29.586V21.539A10.028,10.028,0,0,0,45.981,18H55v2H45v2H55v1a1,1,0,0,0,1,1h5V46Z"/><rect x="45" y="26" width="14" height="2"/><rect x="45" y="30" width="14" height="2"/><rect x="45" y="34" width="14" height="2"/><path d="M43.707,9.293l-2-2a1,1,0,0,0-1.414,0L36,11.586l-1.293-1.293a1,1,0,0,0-1.414,0l-2,2a1,1,0,0,0,0,1.414l4,4a1,1,0,0,0,1.414,0l7-7A1,1,0,0,0,43.707,9.293ZM36,15.586,33.414,13,34,12.414l1.293,1.293a1,1,0,0,0,1.414,0L41,9.414l.586.586Z"/><rect x="35" y="48" width="12" height="2"/><rect x="33" y="52" width="16" height="2"/><rect x="33" y="56" width="16" height="2"/><text x="0" y="79" fill="#000000" font-size="5px" font-weight="bold" font-family="'Helvetica Neue', Helvetica, Arial-Unicode, Arial, Sans-serif">Created by nareerat jaikaew</text><text x="0" y="84" fill="#000000" font-size="5px" font-weight="bold" font-family="'Helvetica Neue', Helvetica, Arial-Unicode, Arial, Sans-serif">from the Noun Project</text></svg>