<svg xmlns="http://www.w3.org/2000/svg" xmlns:xlink="http://www.w3.org/1999/xlink" xml:space="preserve" version="1.1" style="shape-rendering:geometricPrecision;text-rendering:geometricPrecision;image-rendering:optimizeQuality;" viewBox="0 0 50000 62500" x="0px" y="0px" fill-rule="evenodd" clip-rule="evenodd"><defs><style type="text/css">
   
    .fil0 {fill:black;fill-rule:nonzero}
   
  </style></defs><g><path class="fil0" d="M34331.85 32677.34c-107.64,837.96 -1209.48,1548.41 -2936.97,2028.7 -3650.13,1014.81 -9367.81,1014.82 -13017.93,0 -1566.23,-435.46 -2618.3,-1060.1 -2881.3,-1797.43 -90.28,-253.16 -64.53,-546 -64.53,-811 0,-4921.99 0,-9843.97 0,-14765.96 0,-202.01 -12.43,-370.04 48.56,-568.36 233.26,-758.51 1296.74,-1401.09 2897.28,-1846.07 3693,-1026.74 9335.34,-1006.63 13027.92,20 1117.77,307.32 2935.84,885.62 2935.84,2262.14 0,4997.7 0,9995.4 0,14993.1 0,152.14 10.25,336.04 -8.87,484.88zm3331 2306.33c-120.72,304.42 -583.65,120.87 -462.9,-183.6 2591.11,-6508.72 3521.46,-14103.53 3712.51,-21068.94 8.98,-327.52 507.02,-313.9 498.04,13.68 -192.91,7033.71 -1131.11,14666.23 -3747.65,21238.86zm-25059.45 -183.6c120.75,304.47 -342.18,488.02 -462.9,183.6 -2616.54,-6572.63 -3554.74,-14205.15 -3747.65,-21238.86 -8.98,-327.58 489.06,-341.2 498.04,-13.68 191.05,6965.41 1121.4,14560.22 3712.51,21068.94zm12034.51 6437.98c0,-526.15 800,-526.15 800,0l0 4437.11c-17.64,2029.25 926.93,1901.44 2549.47,1365.52 4779.2,-1549.18 8368.42,-5286.37 10856.29,-10710.86 2664.66,-5809.97 4066.71,-13545.76 4315.08,-22602.79 78.37,-2858.05 386.61,-4453.12 -2721.85,-4820.73 -3173.38,-375.33 -5777.18,-1239.23 -8332.44,-3176.08 -419.27,-316.5 61.96,-954.02 481.26,-637.5 2448.17,1855.66 4904.31,2660.2 7944.94,3019.82 3641.71,430.67 3514.41,2374.79 3424.97,5636.37 -251.24,9161.81 -1676.59,17002.52 -4386.96,22912.17 -2582,5629.74 -6329.26,9515.55 -11337.53,11138.98 -2308.84,748.41 -3593.23,518.27 -3593.23,-2124.9l0 -4437.11zm-5824 4393.41c447.5,273.01 31.86,954.27 -415.62,681.26 -9750.69,-5980.68 -12060.21,-21855.85 -12353.92,-32563.81 -89.45,-3261.65 -106.78,-5205.69 3534.97,-5636.37 5606.22,-663.03 7700.77,-2589.22 9669.79,-4309.63 976.63,-853.31 1937.92,-1698.29 3172.23,-2299.07 1708.37,-831.51 2978.64,198.27 2978.64,2005.51l0 5992.68c0,526.15 -800,526.15 -800,0l0 -5997.09c0,-1210.5 -676.53,-1822.58 -1868.64,-1242.34 -1146.07,557.83 -2025.25,1326.01 -2957.23,2140.31 -2058.17,1798.3 -4252.54,3811.71 -10101.03,4503.39 -3108.5,367.64 -2910.23,1962.57 -2831.85,4820.73 285.13,10395.99 2515.05,26103.49 11972.66,31904.43zm11847.71 -12319.26c-319.85,75.79 -435.08,-410.53 -115.24,-486.32 613.04,-145.49 1521.27,-404.12 2033.1,-776.01 265.92,-192.68 558.85,211.65 292.96,404.3 -566.48,411.59 -1531.75,696.87 -2210.82,858.03zm662.73 -5222.98c-314.71,93.77 -457.29,-384.75 -142.58,-478.52 443.79,-133.42 1021.26,-332.5 1397.71,-606.03 265.92,-192.68 558.85,211.65 292.96,404.3 -424.41,308.37 -1047.56,529.76 -1548.09,680.25zm647 -5506.49c-305.75,118.17 -485.38,-346.69 -179.68,-464.84 264.2,-102.31 557.91,-231.84 787.81,-398.87 265.92,-192.68 558.85,211.65 292.96,404.3 -265.79,193.12 -595.56,341.09 -901.09,459.41zm-2981.72 -6295c-326.27,-32.11 -277.46,-528.21 48.82,-496.1 657.14,65.21 1477.04,208.11 2072.57,423.2 1737.08,627.37 733.56,1421.33 -529.29,1772.76 -1328.85,369.79 -2862.02,503.3 -4247.04,477.6 -327.51,-5.12 -319.77,-503.16 7.82,-498.04 1336.34,24.79 2824.76,-103.36 4106.4,-460.02 723.11,-201.23 1415.44,-558.04 450.06,-867.63 -603.66,-166.57 -1283.9,-289.71 -1909.34,-351.77zm4202.91 2250.91c-474.56,270.45 -1082.47,508.75 -1797.66,707.59 -3650.14,1014.82 -9367.78,1014.82 -13017.92,0 -644.76,-179.26 -1202.33,-390.6 -1653.61,-628.64 -585.09,-308.64 -492.23,-469.01 -492.23,283.92l0 3334.63c0,493.37 901.24,990.64 2358.33,1395.75 3502.12,973.66 9090.81,973.66 12592.93,0 1457.1,-405.11 2358.34,-902.37 2358.34,-1395.75l0 -3427.21c0,-589.39 90.46,-520.27 -348.18,-270.29zm-2010.16 -2852.66c-3502.13,-973.66 -9090.79,-973.66 -12592.92,0 -1457.1,405.1 -2358.34,902.37 -2358.34,1395.74 0,493.38 901.24,990.64 2358.34,1395.75 3502.11,973.66 9090.81,973.66 12592.92,0 1457.1,-405.11 2358.34,-902.37 2358.34,-1395.75 0,-493.37 -901.24,-990.64 -2358.34,-1395.74zm2062.1 7977.96c-481.82,282.87 -1108.05,531.46 -1849.6,737.63 -3650.13,1014.81 -9367.81,1014.82 -13017.93,0 -701.8,-195.12 -1300.08,-428.66 -1770.89,-692.45 -415.45,-232.77 -374.94,-351.57 -374.94,259.21l0 3418.78c0,493.37 901.24,990.64 2358.33,1395.75 3502.12,973.66 9090.81,973.66 12592.93,0 1457.1,-405.11 2358.34,-902.38 2358.34,-1395.75l0 -3564.31c0,-444.01 54.68,-364.88 -296.24,-158.86zm-64.77 5191.75c-472.66,267.45 -1076.08,503.25 -1784.83,700.3 -3650.05,1014.83 -9367.87,1014.83 -13017.92,0 -631.13,-175.47 -1178.73,-381.68 -1624.86,-613.58 -624.79,-324.78 -520.98,-494.1 -520.98,319.8l0 3274.75c0,493.37 901.24,990.64 2358.34,1395.74 3502.12,973.66 9090.8,973.66 12592.92,0 1362.42,-378.78 2238.87,-838.15 2347.02,-1299.55 24.07,-102.76 11.32,-306.03 11.32,-418.64l0 -3078c0,-611.89 93.63,-538.04 -361.01,-280.82z"/></g><text x="0" y="50015" fill="#000000" font-size="5px" font-weight="bold" font-family="'Helvetica Neue', Helvetica, Arial-Unicode, Arial, Sans-serif">Created by Oleksandr Panasovskyi</text><text x="0" y="50020" fill="#000000" font-size="5px" font-weight="bold" font-family="'Helvetica Neue', Helvetica, Arial-Unicode, Arial, Sans-serif">from the Noun Project</text></svg>