<svg xmlns="http://www.w3.org/2000/svg" xmlns:xlink="http://www.w3.org/1999/xlink" xml:space="preserve" version="1.1" style="shape-rendering:geometricPrecision;text-rendering:geometricPrecision;image-rendering:optimizeQuality;" viewBox="0 0 50000 62500" x="0px" y="0px" fill-rule="evenodd" clip-rule="evenodd"><defs><style type="text/css">
   
    .fil0 {fill:black;fill-rule:nonzero}
   
  </style></defs><g><path class="fil0" d="M25382.36 45740.61c333.76,-2.06 323.79,-500 -1.02,-500 -332.89,0.56 -665.77,0.5 -998.66,-0.72 -332.97,0 -326.69,497.98 -1.64,500 333.78,1.23 667.54,1.28 1001.32,0.72zm15923.12 -14305.54c-673.15,-33.64 -1328.92,-194.94 -1733.59,-401.43 -781.44,-398.75 -636.61,-916.53 103.7,-1206.36 143.95,-56.36 328.07,-128.45 483.84,-201.05 498.25,-232.21 379.7,-229.81 19.26,-273.45 -986.65,-119.45 -877.34,-706.19 -69.99,-1089.24 129.6,-61.49 303.26,-154 432.79,-199.13 401.48,-139.89 206.27,-144.28 -23.8,-197.73 -149.01,-34.62 -290.48,-74.58 -389.03,-153.63 -141.12,-113.17 -200.87,-249.2 -129.34,-420.08 84.99,-203.08 362.47,-426.86 517.54,-559.26 399.94,-341.49 493.81,-637.34 800,-948.29 151.75,-154.09 284.97,-171.68 486.57,-39.55 164.44,107.79 578.18,725.53 883.3,969.56 141.68,113.31 287.7,230.1 444.75,403.55l9.77 10.74c200.96,250.58 154.99,436.26 -28.39,583.33 -115.63,92.74 -291.73,193.71 -472.66,201.05 -153.89,6.24 -261.03,15.78 -16.08,114.34 164.8,66.31 345.63,157.74 508.7,235.1 807.36,383.05 916.63,969.82 -70,1089.24 -324.8,39.33 -489.67,29.52 -14.05,257.71 162.27,77.84 362.81,156.36 517.16,216.79 762.41,298.46 848.65,806.43 59.28,1190.08 -432.77,210.34 -1132.5,377.28 -1819.73,415.79l0 1135.77c0,138.07 -111.93,250 -250,250 -138.07,0 -250,-111.93 -250,-250l0 -1133.85zm-1507.03 -846.75c347.09,177.1 914.91,316.06 1507.03,348.16l0 -308.27c0,-138.07 111.93,-250 250,-250 138.07,0 250,111.93 250,250l0 306.26c611.93,-36.91 1225.77,-183.02 1602.93,-366.33 357.72,-173.87 259.26,-165.08 -24.12,-276.02 -482.43,-188.87 -1263.63,-494.71 -1100.03,-1046.9 43.05,-145.31 155.59,-240.67 317.72,-301.59 442.37,-166.14 847.32,10.92 122.44,-319.62 -451.4,-205.85 -908.03,-414.1 -908.03,-788.03 0,-310.51 310.84,-366.31 638.62,-425.11 343.68,-61.61 183.39,-97.06 -78.82,-306.76 -241.21,-192.92 -412.93,-346.85 -591.34,-604.61 -186.23,-263.36 -196.21,-271.63 -363.26,-16.75 -199.78,304.8 -383.24,461.43 -580.51,629.86 -256.03,218.57 -387.83,238.49 -54.58,298.27 327.79,58.78 638.62,114.6 638.62,425.1 0,373.93 -456.62,582.17 -908.01,788.02 -724.92,330.55 -319.88,153.5 122.42,319.63 162.14,60.92 274.69,156.29 317.72,301.59 163.61,552.17 -617.57,858.02 -1100.02,1046.9 -309.23,121.05 -415.04,114.42 -58.78,296.2zm-27338.2 -4282.48c-433.6,-25.99 -852.92,-131.07 -1114.65,-264.61 -537.7,-274.35 -445.83,-653.33 71.14,-855.74 162.68,-63.68 408.43,-159.91 482.48,-215.56 -38.32,-10.11 -87.7,-18.19 -144.27,-25.04 -501.7,-60.73 -700.56,-395.58 -236.04,-683.94 172.94,-107.35 404.29,-199.69 553.44,-270.26 -136.5,-24.62 -275.97,-52.42 -368.61,-126.74 -309.37,-248.02 64.89,-536.01 253.2,-696.78 108.03,-92.24 208.5,-178.03 311.74,-335.53 325.3,-496.3 470.76,-529.41 839.96,3.87 167.39,241.93 413.99,370.69 609.9,587.07l7.81 8.59c148.2,184.81 113.07,322.75 -24.12,432.79 -92.66,74.3 -232.12,102.12 -368.62,126.74 117.89,55.76 287.2,125.18 438.41,204.85 820.58,432.39 211.25,648.65 -265.29,774.38 74.06,55.65 319.81,151.88 482.48,215.56 531.48,208.09 585.38,581.01 41.36,845.38 -279.62,135.9 -726.88,244.48 -1170.32,273.51l0 709.21c0,263.07 -400,263.07 -400,0l0 -707.75zm0 -399.09l0 -163.25c0,-263.07 400,-263.07 400,0l0 161.72c300.11,-21.5 857.33,-115.71 1107.66,-297.72 -304.5,-137.04 -999.41,-327.46 -865.53,-779.34 31.82,-107.43 113.21,-177.26 229.97,-221.11 72.31,-27.17 160.18,-44.89 257.81,-57.31 -59.02,-29.92 -119.73,-57.45 -179.94,-84.9 -306.02,-139.56 -615.6,-280.75 -615.6,-548.72 0,-201.59 162.42,-258.3 354.7,-296.56 222.09,-44.21 188.54,-23.69 25.46,-154.11 -131.53,-105.18 -257.61,-206.04 -387.21,-393.19 -70.08,-101.3 -104.76,-143.53 -184.51,-21.86 -133.49,203.65 -255.52,307.85 -386.74,419.89 -176.09,150.34 -152.59,111.25 36.47,148.51 193.95,38.28 358.55,94.39 358.55,297.32 0,267.97 -309.58,409.16 -615.6,548.72 -60.21,27.45 -120.92,54.98 -179.94,84.9 97.62,12.42 185.49,30.14 257.8,57.31 116.76,43.85 198.15,113.67 229.97,221.11 144.63,488.15 -614.88,628.9 -885.99,789.48 224.69,181.35 765.02,270.72 1042.67,289.11zm6208.24 4143.77c-531.15,-26.85 -1048.36,-154.21 -1367.73,-317.18 -618.96,-315.8 -504.86,-727.64 82.12,-957.4 125.05,-48.96 288.6,-113 418.26,-175.78 371.77,-180.04 214.42,-165.64 -20.29,-194.04 -195.21,-23.63 -330.88,-65.94 -414.35,-122.43 -171.19,-115.84 -185.17,-310.25 -55.88,-464.26 157.14,-187.24 545.36,-336.49 781.14,-447.76 217.17,-102.47 203.92,-98.16 -81.12,-147.68 -105.48,-18.33 -200.73,-57.39 -270.6,-113.43 -146.04,-117.11 -182.71,-264.91 -22.82,-464.27l7.81 -8.59c329.48,-363.89 580.06,-611.99 907.1,-1002.32 184.31,-220.02 361.37,-187.49 537.42,10.89 252.42,284.52 240.35,389.62 593.96,672.44 111.98,89.55 227.38,181.85 351.55,318.99l7.81 8.59c159.88,199.35 123.22,347.14 -22.81,464.27 -83.18,66.71 -203.55,103.48 -330.86,126.51 -143.21,25.91 -197.95,68.33 -1.71,143.91 61.84,23.82 124.5,57.57 188.8,86.89 187.85,85.63 442.37,195.7 573.18,351.56 129.29,154.01 115.22,347.63 -55.88,463.47l0 0.79c-83.49,56.49 -219.14,98.8 -414.36,122.43 -251.87,30.5 -388.79,19.94 0.24,203.86 126.07,59.59 279.22,119.56 397.76,165.96 604.46,236.58 672.23,640.69 46.97,944.58 -341.53,165.99 -893.4,297.8 -1435.71,328.47l0 894.58c0,263.07 -400,263.07 -400,0l0 -893.05zm-1186.47 -673.44c273.32,139.46 720.18,248.95 1186.47,274.55l0 -240.77c0,-263.07 400,-263.07 400,0l0 239.16c482.04,-29.38 965.21,-144.51 1262.27,-288.88 277.95,-135.11 202.9,-126.51 -18.85,-213.32 -143.77,-56.29 -321.09,-125.7 -479.35,-213.77 -376.98,-209.77 -642.29,-666.68 -138.48,-855.99 347.17,-130.44 657.87,8.24 96.59,-247.69 -357.25,-162.93 -718.68,-327.74 -718.68,-624.71 0,-247.38 246.52,-291.61 506.48,-338.24 60.81,-10.91 122.95,-22.06 173.08,-33.67 -80.2,-79.11 -159.26,-142.35 -236.48,-204.1 -179.49,-143.56 -297.26,-289.98 -427.54,-478.06 -159.42,-223.74 -193.86,-209.74 -322.64,-13.26 -207.77,317 -428.62,445.96 -676.86,695.3 50.23,11.66 112.58,22.85 173.6,33.79 259.94,46.63 506.47,90.86 506.47,338.24 0,296.96 -361.41,461.78 -718.66,624.7 -95.27,43.43 -455.98,150.51 -221.71,178.88 208.36,25.22 501.74,75.69 570.75,308.67 129.87,438.34 -488.45,680.42 -870.28,829.91 -221.82,86.84 -322.23,88.41 -46.18,229.26zm17391.22 10402.9c-954.11,-35.32 -1892.82,-260.73 -2463.69,-552.02 -1016.38,-518.59 -805.41,-1131.32 135.43,-1499.62 81.55,-31.93 1557.84,-587.43 1094.67,-761.41 -101.79,-38.24 -247.56,-65.1 -419.21,-85.88 -1283.49,-155.39 -1125.34,-877.6 -67.19,-1329.54 262.12,-124.36 1519.59,-552.63 795.77,-687.65 -1464.83,-262.78 -948.7,-819.89 -206.55,-1453.47 239.68,-204.64 462.55,-394.93 695.08,-749.69 165.01,-251.75 293.7,-438.71 411.86,-557.92 181.93,-183.53 338.94,-206.53 565.2,-58.22 189.48,124.17 402.86,461.82 532.73,649.39 221.27,319.53 449.77,502.29 688.15,692.94 193.83,155.02 393.58,314.77 606.92,550.39l9.77 10.74c234.62,292.55 184.29,506.64 -24.61,674.19 -172.44,138.28 -466.47,191.04 -748.59,241.65 -461.6,151.81 -258.11,205.75 516.97,559.22 509.39,232.29 1042.88,539.08 1095.28,859.87 38.32,234.61 -170.96,511.81 -883.67,598.1 -1274.03,154.24 186.27,655.77 675.48,847.29 971.29,380.24 1100.19,978.24 75.56,1476.24 -611.28,297.11 -1613.52,530.9 -2585.36,573.33l0 1671.57c0,328.84 -500,328.84 -500,0l0 -1669.5zm-2237.13 -997.34c512.93,261.72 1363.36,464.76 2237.13,499.03l0 -530.48c0,-328.84 500,-328.84 500,0l0 528.33c897.23,-41.31 1813.2,-254.24 2368.56,-524.16 615.54,-299.2 472.99,-361.18 -40.4,-562.18 -638.95,-250.15 -1673.59,-655.23 -1471.49,-1337.4 50.06,-168.97 185.82,-281.71 382.66,-355.65 725.31,-272.42 1525.8,-8.51 176.34,-623.93 -599.19,-273.26 -1205.32,-549.67 -1205.32,-1007.21 0,-350.49 393.03,-421.04 807.49,-495.37 692.54,-124.21 458.29,-178.65 -66.13,-598.05 -327.23,-261.71 -560.68,-470.44 -802.76,-820.07 -364.19,-596.58 -336.54,-570.99 -666.68,-21.36 -270.37,412.49 -520.17,625.78 -788.82,855.15 -612.21,522.64 -724.99,459.63 -29.77,584.33 414.46,74.33 807.49,144.88 807.49,495.37 0,560.41 -1022.03,917.24 -1478.26,1133.7 -444.16,210.73 -712.96,306.49 -87.11,382.26 206.94,25.05 390.8,60.49 536.39,115.18 196.86,73.95 332.62,186.68 382.66,355.65 202.12,682.18 -832.52,1087.24 -1471.47,1337.4 -495.83,194.11 -704.99,275.94 -90.51,589.46zm-24139.93 -5985.86c-724.26,-34.02 -1431.4,-206.99 -1866.3,-428.9 -824.08,-420.5 -667.42,-955.55 109.46,-1259.66 172.32,-67.46 397.5,-155.62 575.95,-244.12 504.35,-250.11 309.99,-255.58 -41.51,-298.15 -842.93,-102.05 -1022.37,-615.05 -260.16,-1035.75 137.05,-75.63 282.76,-140.06 406.14,-196.32 320.37,-146.12 838.97,-248.72 264.19,-349.81 -175.53,-30.87 -342.19,-80.1 -454.74,-170.38 -188.05,-150.78 -234.8,-341.62 -27.71,-599.84l9.77 -10.74c318.97,-352.29 692.01,-569.43 958.73,-976.36 547.37,-835.08 732.99,-733.81 1258.07,24.49 270.81,391.09 675.28,601.12 992.84,951.87l9.77 10.74c207.08,258.21 160.33,449.06 -27.71,599.84 -144.12,115.6 -378,157.55 -602.41,197.81 -65.95,11.82 -134.44,58.5 2.41,129.85 233.33,121.66 582.26,292.11 857.45,452.55 752.73,438.86 476.35,877.81 -302.02,972.05 -378.02,45.78 -537.99,57.33 -18.59,309.39 174.52,84.68 388.01,168.28 553.03,232.88 800.51,313.36 894.29,837.68 62.23,1242.09 -465.21,226.12 -1219.87,405.24 -1958.89,444.53l0 1233.05c0,328.84 -500,328.84 -500,0l0 -1231.11zm-1639.74 -874.22c377.24,192.48 996.35,343.09 1639.74,375.69l0 -348.77c0,-328.84 500,-328.84 500,0l0 346.71c663.89,-37.81 1332.56,-196.05 1742.09,-395.1 402.71,-195.74 347.93,-181.25 -27.07,-328.03 -510.88,-200.01 -1338.14,-523.9 -1167.55,-1099.71 90.38,-305.09 483.83,-370.53 756.15,-403.5 446.22,-54 -656.03,-482.44 -871.72,-598.64 -496.49,-267.46 -720.62,-769.15 284.58,-949.95 584.45,-104.84 -347.21,-484.9 -706.3,-1003.5 -245.95,-340.97 -216.45,-325.68 -418.4,-17.57 -287.8,439.1 -601.91,616.47 -941.03,965.96 74.37,19.55 174.72,37.56 272.59,55.11 343.54,61.61 669.32,120.08 669.32,437.88 0,389.13 -483.8,609.75 -962.04,827.86 -851.82,388.35 -354.69,192.03 132.2,374.94 168.44,63.26 285.21,161.8 329.53,311.41 170.59,575.81 -656.67,899.7 -1167.55,1099.71 -363.48,142.27 -469.23,143.02 -64.54,349.5zm18907.43 7834.14c480.74,480.76 480.76,1269.78 0,1750.54 -480.75,480.75 -1269.79,480.75 -1750.54,0 -480.76,-480.76 -480.74,-1269.78 0,-1750.54 480.75,-480.75 1269.79,-480.75 1750.54,0zm-353.52 353.52c-286.53,-286.53 -756.97,-286.53 -1043.5,0 -286.52,286.54 -286.54,756.96 0,1043.5 286.53,286.53 756.97,286.53 1043.5,0 286.54,-286.54 286.52,-756.96 0,-1043.5zm967.34 -967.34c1098.64,1098.61 474.28,2779.06 -147.43,3962.31 -909.92,1731.82 -1773.4,1731.82 -2683.32,0 -621.71,-1183.25 -1246.07,-2863.7 -147.43,-3962.31 817.87,-817.89 2160.31,-817.89 2978.18,0zm-353.52 353.52c-623.65,-623.67 -1647.49,-623.67 -2271.14,0 -907.15,907.12 -267.65,2419.14 235.31,3376.37 718.96,1368.39 1081.56,1368.38 1800.52,0 502.96,-957.23 1142.46,-2469.25 235.31,-3376.37zm-850.76 -34987.36c0,-138.07 111.93,-250 250,-250 108.79,0 201.34,69.5 235.7,166.51 215.24,-6.23 440.41,55.01 648.05,105.74 506.2,123.69 1207.28,294.92 1913.67,11.78 163.89,-82.36 362.13,35.91 362.13,223.48l0 1973.22c-905.81,372.6 -1467.31,308.72 -2392.98,82.52 -55.2,-13.49 -500.02,-144.49 -516.57,-63.61l0 1583.8c2153.77,146.2 3026.64,1628.06 5273.67,5444.32 254.8,432.75 507.92,868.47 767.7,1298.05 1291.21,-451.56 2473.82,154.47 4118.45,997.5 1798.58,921.85 2259.38,769.45 4114.28,-114.02 2964.41,-1411.97 4141.2,-975.83 5867.29,1891.85 612.95,1018.35 1255.04,2085.1 2378.33,2606.12 297.99,137.42 89.05,590.56 -208.98,453.12 -1263.7,-586.15 -1945.88,-1719.49 -2597.09,-2801.42 -1584.79,-2632.93 -2517.48,-2987.98 -5224.71,-1698.49 -2033.37,968.48 -2597.45,1109.91 -4555.68,106.2 -1474.99,-756.08 -2550.05,-1306.98 -3611.24,-1006.62 501.18,726.94 1129.02,1401.39 1834.71,1923.82 3090.01,2287.57 4565.64,-101.92 8688.01,4673.3 1043.55,1208.81 2041.48,2364.77 3764.92,2779.47 318.56,75.79 203.33,560.17 -115.24,484.38 -1881.4,-452.71 -2930.05,-1667.42 -4026.64,-2937.67 -4001.09,-4634.75 -5456.32,-2265.9 -8607.93,-4599.08 -1530.46,-1133.01 -2123.6,-2289.14 -3015.86,-3804.55 -2131.53,-3620.08 -2967.39,-5039.18 -4855.9,-5195.51 -149.99,-12.41 -308,-16.68 -458.67,-14.23 -1359.72,22.16 -2451.16,1503.98 -3608.42,3075.17 -1292.63,1754.96 -2662.87,3614.75 -4672.92,3882.66 395.22,378.21 809.51,822.1 1244.91,1337.87 1565.57,1854.56 2617.91,2035.69 3681.91,1995.52 40.78,-104.16 149.96,-178.55 277.28,-156.13 284.15,51.71 565.02,80.65 852,93.29 1036.12,-26.64 2212.91,142.66 3863.38,1439.17 1346.51,1057.74 2369.68,2117.5 3291.95,3072.74 1947.52,2017.16 3432.2,3554.9 6617.54,3538.03l2448.14 -12.97c137.52,-0.54 249.46,110.52 250,248.04 0.54,137.52 -110.52,249.46 -248.04,250l-2448.14 12.97c-2366.44,12.54 -3835.99,-761.58 -5196.21,-1943.24 -79.3,187.87 -338.47,207.02 -444.25,33.25 -169.8,-277.18 -357.02,-541.37 -554.95,-799.07 -48.65,-64.04 -63.05,-145.29 -41.81,-219.98 -1306.61,-1316.44 -2517.3,-2635.95 -3982.83,-3787.19 -1208.19,-949.08 -2141.41,-1244.98 -2952.8,-1314.93 -784.6,-33.42 -1541.41,67.62 -2276.1,165.74 -1362.81,182 -2652.85,354.28 -3986.15,-305.14 -123.5,-60.94 -174.22,-210.48 -113.28,-333.98 60.94,-123.5 210.48,-174.22 333.98,-113.28 856.67,423.69 1723.14,461.27 2617.48,385.52 -690.13,-277.72 -1450.91,-837.4 -2369.96,-1926.1 -2700.21,-3198.67 -4455.85,-3454.97 -5816.44,-2306.4 -1178.54,994.88 -2117.51,3015.69 -3101.19,5132.75 -1679.02,3613.56 -3484.29,7498.78 -6964.79,7425.17 -327.53,-6.41 -317.81,-504.45 9.76,-498.04 3155.13,66.72 4889.15,-3665.16 6501.91,-7136.11 1007.71,-2168.76 1969.6,-4238.92 3232.05,-5304.63 1250.86,-1055.93 2745.86,-1144.92 4759.52,561.78 2045.75,7.22 3458.87,-1910.82 4785.71,-3712.23 1227.17,-1666.12 2384.94,-3237.65 3981.34,-3277.61 0,-1274.21 0,-2548.41 0,-3822.62zm500 1722.81c176.27,-32.27 430.35,56.36 633.75,106.06 473.24,115.64 1116.8,272.82 1775.8,61.46l0 -1287.52c-728.91,188.18 -1394.64,25.6 -1892.98,-96.18 -55.18,-13.48 -500.05,-144.49 -516.57,-63.6l0 1279.78zm-1102.89 3538.2c241.13,-222.89 -95.56,-590.52 -337.98,-368.46 -275.11,248.99 -477.25,554.49 -633.96,887.27 -139.65,301.89 313.73,506.28 453.08,211.46 131.13,-277.99 289.76,-522.93 518.86,-730.27zm-976.81 2114.37c88.63,-321.53 -392.55,-448.12 -481.24,-135.68 -88.47,314.33 -179.25,633.2 -288.18,940.98 -106.55,307.62 360.32,479.36 471.76,165.66 111.81,-319.19 206.05,-645.47 297.66,-970.96zm-939.88 2378.25c169.12,-286.69 -263.18,-534.53 -429.92,-255.3 -164.69,276.2 -347.92,536.7 -551.23,785.5 -206.97,251.15 170.48,574.81 384.5,319.64 219.83,-268.91 418.6,-551.34 596.65,-849.84zm-1702.64 1934.01c255.66,-204.94 -51.13,-596.12 -311.02,-391.48 -257.75,206.04 -606.32,403.14 -820.05,646.18 -215.08,247.55 161.81,576.12 377.52,327.84 121.74,-138.26 568.2,-434.38 753.55,-582.54zm-772.77 1681.21c-173.81,-276.88 -598.72,-16.61 -424.06,264.9 194.44,314.44 483.68,572.66 795.36,767.31 281.3,173.27 541.36,-252.54 262.84,-425.34 -245.39,-152.88 -480.99,-359.21 -634.14,-606.87zm11980.72 9010.56c-65.61,-323.99 -552.82,-222.67 -490.12,98.92 62.02,295.08 79.45,596.81 22.85,894.45 -63.72,326.83 425.69,417.08 490.28,98.14 69.87,-368.58 53.89,-725.67 -23.01,-1091.51zm-719.99 2524.47c218.44,-242.71 -148.63,-579.99 -371.42,-334.72 -215.13,242.14 -445.34,448.37 -700.28,647.71 -262.99,203.41 48.49,594.61 306.02,395.42 278.3,-217.65 530.79,-444.03 765.68,-708.41zm-2055 1544.48c290.72,-162.88 42.84,-594.02 -242.34,-437.36 -287.98,158.81 -578.61,308.41 -875.26,450.4 -300.08,143.88 -79.3,590.52 214.76,451.54 306.06,-146.64 605.64,-300.76 902.84,-464.58zm-2289.11 1074.98c307.95,-125.23 115.16,-584.57 -187.42,-463.54 -306.81,124.7 -615.03,245.19 -925.12,361.5 -311.48,117.57 -130.71,581 174.9,468.42 314.28,-117.96 626.66,-239.98 937.64,-366.38zm-2357.51 873c306.66,-104.21 156.86,-579.33 -160.58,-473.52 -314.66,106.54 -629.44,210.69 -945.45,313.15 -316.53,102.77 -157.31,574.75 152.94,476.04 318.44,-103.25 636.18,-207.79 953.09,-315.67zm-2389.26 763.62c317.36,-96.23 168.72,-571.61 -144.48,-478.66 -318.42,95.85 -637.08,190.32 -956.32,283.43 -320.8,95.21 -171.25,570.35 139.58,480.12 320.88,-93.58 641.16,-188.54 961.22,-284.89zm-2407.33 695.66c321.85,-90.78 179.13,-568.02 -133.18,-481.94 -320.75,88.87 -641.71,176.55 -962.95,263.62 -322.19,88.81 -182.79,567 130.06,482.78 322.28,-87.34 644.29,-175.3 966.07,-264.46zm-2416.76 650.81c185.46,-49.93 248.99,-279.98 114.11,-417.4 -63.75,-63.75 -154.36,-89.01 -241.75,-66.04 -322.39,85.1 -644.79,170.16 -967.08,255.63 -182.96,49.26 -247.5,274.69 -117.81,413.19 63.78,66.85 156.53,93.61 246.03,70.09 322.09,-85.45 644.31,-170.42 966.5,-255.47zm-2412.39 645.21c322.08,-90.84 178.95,-567.99 -133.04,-481.98 -322.3,88.81 -644.54,178.88 -965.6,272.06 -317.21,92.09 -175.14,571.51 139.2,480.24 318.9,-92.8 639.25,-182.09 959.44,-270.32zm-2387.68 704.06c312.67,-101.51 160.56,-575.78 -153.16,-475.96 -319.78,102.69 -638.24,209.76 -954.78,322.07 -314.49,113.79 -137.57,579.51 167.7,471.04 311.7,-110.61 625.33,-216.03 940.24,-317.15zm-2321.05 857.03c299.81,-131.68 104.2,-589.8 -199.5,-458.48 -312.58,136.5 -617.25,280.04 -919.84,437.25 -165.76,88.1 -179.8,318.66 -26.05,426.53 77.95,53.01 175.45,59.71 259.23,15.77 290.3,-150.77 585.86,-291.32 886.16,-421.07zm-2116.27 1195.45c258.81,-203.78 -47.77,-595.16 -307.78,-394.06 -277.06,217.82 -536.69,454.6 -762.47,725.97 -208.37,255.34 177.73,570.56 386.08,317.72 207.4,-244.91 432.07,-451.58 684.17,-649.63zm-1282.11 1865.55c54.81,-322.77 -435.41,-410.46 -492.74,-84.88 -64.36,357.74 -61.18,727.44 5.26,1084.62 63.43,325.4 551.49,226.09 490.84,-95.26 -55.31,-297.77 -57,-606.35 -3.36,-904.48zm618.72 2097.83c-228.16,-242.55 -586.92,101.66 -366.04,340.6 239.12,260.52 515.15,485.44 809.53,680.63 272.86,177.87 551.95,-235 274.18,-418.12 -260.85,-172.8 -505.86,-372.34 -717.67,-603.11zm2006.7 1259.62c-306.05,-120.38 -489.68,342.65 -184.14,464.86 318.49,125.36 636.67,234.35 963.88,334.62 320.1,94.99 455.61,-384.32 145.26,-478.44 -313.99,-96.14 -619.4,-200.77 -925,-321.04zm2357.03 686.36c-318.21,-66.47 -429.04,419.11 -103.28,489.22 329.7,70.17 659.28,133 991.3,191.11 320.65,54.46 412.39,-435.05 84.38,-492.82 -325.69,-57.03 -648.98,-118.68 -972.4,-187.51zm2444.84 407.44c-326.07,-40.76 -389.3,453.19 -62.42,496.08 332.94,41.88 665.06,80.42 998.7,115.86 328.44,32.65 377.76,-462.89 51.66,-497.32 -329.82,-34.64 -658.95,-72.88 -987.94,-114.62zm2474.89 249.21c-331.08,-24.68 -363.34,472.26 -37.88,498.56 333.58,25.62 667.21,48.91 1001.12,69.8 333.72,18.66 354.24,-478.96 30.78,-499.06 -331.53,-20.66 -662.83,-43.86 -994.02,-69.3zm2487.44 148.38c-330.22,-14.27 -349.22,483.26 -21.86,499.52 333.91,14.73 667.93,27.6 1001.97,38.89 331.81,10.24 342.63,-487.66 16.42,-499.74 -332.23,-11.22 -664.43,-24.02 -996.53,-38.67zm2492.78 79.09c-331.97,-6.15 -336.42,491.83 -10.04,499.9 333.88,6.86 667.81,12.59 1001.73,16.9 330.97,4.09 333.68,-493.91 6.28,-499.96 -332.68,-4.36 -665.34,-10 -997.97,-16.84z"/></g><text x="0" y="50015" fill="#000000" font-size="5px" font-weight="bold" font-family="'Helvetica Neue', Helvetica, Arial-Unicode, Arial, Sans-serif">Created by Oleksandr Panasovskyi</text><text x="0" y="50020" fill="#000000" font-size="5px" font-weight="bold" font-family="'Helvetica Neue', Helvetica, Arial-Unicode, Arial, Sans-serif">from the Noun Project</text></svg>