<svg
            xmlns="http://www.w3.org/2000/svg"
            version="1.1"
            x="0px"
            y="0px"
            viewBox="0 0 1417.3 1771.625"
          >
            <g>
              <path d="M439.5,681.3h28.3c9.4-0.1,9.2-14.1,0-14.2h-28.3C430,667.1,430.2,681.2,439.5,681.3z" />
              <path d="M492.8,434.3c6.6,6.5,16.6-3.4,10-10l-20-20c-6.6-6.5-16.6,3.4-10,10L492.8,434.3z" />
              <path d="M1088.2,681.3h28.3c9.4-0.1,9.2-14.1,0-14.2h-28.3C1078.8,667.1,1079,681.2,1088.2,681.3z" />
              <path d="M194.4,673.5c0,25.1-20.3,45.4-45.4,45.4c-5.6,0-5.6,8.5,0,8.5c29.8,0,53.9-24.2,53.9-53.9   C202.9,667.9,194.4,667.9,194.4,673.5z" />
              <path d="M255.2,667.1H234c-3.3-43.4-39.6-77-83.1-77v0c-46,0-83.4,37.3-83.4,83.4s37.3,83.4,83.4,83.4c43,0,79.1-32.8,83-75.6h21.3   C264.6,681.2,264.5,667.1,255.2,667.1z M150.9,742.7c-38.2,0-69.2-31-69.2-69.2c0-38.2,31-69.2,69.2-69.2c38.2,0,69.2,31,69.2,69.2   S189.1,742.7,150.9,742.7z" />
              <path d="M442.7,384.2c6.6,6.5,16.6-3.4,10-10l-20-20c-6.6-6.5-16.6,3.4-10,10L442.7,384.2z" />
              <path d="M1209.5,253.5c29.8,0,53.9-24.2,53.9-53.9c0-5.6-8.5-5.6-8.5,0c0,25.1-20.3,45.4-45.4,45.4   C1203.9,245,1203.9,253.5,1209.5,253.5z" />
              <path d="M542.9,484.4c6.6,6.5,16.6-3.4,10-10l-20-20v0c-6.6-6.5-16.6,3.4-10,10L542.9,484.4z" />
              <path d="M1149.9,256.9l-17.5,17.5c-6.5,6.6,3.4,16.6,10,10l17.9-17.9c33,25.4,80.3,22.4,109.8-7.1c32.4-32.4,32.4-85.5,0-117.9   c-32.4-32.4-85.5-32.4-117.9,0C1120.8,172.9,1119.8,224.2,1149.9,256.9L1149.9,256.9z M1162.3,151.5c26.9-26.9,71-26.9,97.9,0v0   c26.9,26.9,26.9,71,0,97.9c-26.9,26.9-71,26.9-97.9,0C1135.4,222.5,1135.4,178.4,1162.3,151.5z" />
              <path d="M1042.2,384.6l20-20c6.5-6.6-3.4-16.6-10-10l-20,20C1025.7,381.2,1035.6,391.2,1042.2,384.6z" />
              <path d="M1092.3,334.5l20-20c6.5-6.6-3.4-16.6-10-10l-20,20C1075.8,331.1,1085.7,341.1,1092.3,334.5z" />
              <path d="M992.1,434.7l20-20c6.5-6.6-3.4-16.6-10-10l-20,20C975.6,431.3,985.5,441.3,992.1,434.7z" />
              <path d="M735.6,234.7v23.3c0.1,9.4,14.1,9.2,14.2,0v-23.4c19.9-1.8,37.9-10.7,51.2-24.1c32.4-32.4,32.4-85.5,0-117.9   c-32.4-32.4-85.5-32.4-117.9,0c-32.4,32.4-32.4,85.5,0,117.9C696.7,224.2,715.1,233.1,735.6,234.7z M693.1,102.6   c26.9-26.9,71-26.9,97.9,0c26.9,26.9,26.9,71,0,97.9c-12.5,12.5-29.8,20.3-48.9,20.3c-19.1,0-36.4-7.7-48.9-20.3   C666.2,173.6,666.2,129.5,693.1,102.6z" />
              <path d="M942,484.8l20-20c6.5-6.6-3.4-16.6-10-10l-20,20C925.5,481.4,935.4,491.4,942,484.8z" />
              <path d="M749.7,300.5c-0.1-9.4-14.1-9.2-14.2,0v28.3c0.1,9.4,14.1,9.2,14.2,0V300.5z" />
              <path d="M735.6,371.3v28.3c0.1,9.4,14.1,9.2,14.2,0v-28.3C749.7,361.9,735.6,362.1,735.6,371.3z" />
              <path d="M715.6,547.4L614.8,648.1c-4,4,2.1,10,6,6l100.8-100.8C725.5,549.4,719.5,543.4,715.6,547.4z" />
              <path d="M974.8,667.1h-22c-1.7-52.7-22.9-100.5-56.6-136.5l15.6-15.6c6.5-6.6-3.4-16.6-10-10l-15.6,15.6   c-36-33.7-83.8-54.8-136.5-56.6v-21.8c-0.1-9.4-14.1-9.2-14.2,0V464c-52.7,1.7-100.5,22.9-136.5,56.6L583,504.5   c-6.6-6.5-16.6,3.4-10,10l16.1,16.1c-33.7,36-54.8,83.8-56.6,136.5h-22.1c-9.4,0.1-9.2,14.1,0,14.2h22.1   c1.7,52.7,22.9,100.5,56.6,136.5l-15.6,15.6c-6.5,6.6,3.4,16.6,10,10l15.6-15.6c36,33.7,83.8,54.8,136.5,56.6v21   c0.1,9.4,14.1,9.2,14.2,0v-21c52.7-1.7,100.5-22.9,136.5-56.6l15.2,15.2c6.6,6.5,16.6-3.4,10-10l-15.2-15.2   c33.7-36,54.8-83.8,56.6-136.5h22C984.2,681.2,984.1,667.1,974.8,667.1z M881.3,812.9c-35,35-83.1,56.8-136.4,57.4l0,0   c-1.5-0.5-3.1-0.6-4.7,0c-53.2-0.6-101.4-22.5-136.4-57.4c-35.5-35.5-57.4-84.5-57.4-138.7s22-103.2,57.4-138.7   C639.4,500,688.5,478,742.7,478c54.2,0,103.2,22,138.7,57.4c35.5,35.5,57.4,84.5,57.4,138.7C938.8,728.3,916.8,777.4,881.3,812.9z" />
              <path d="M742.7,825.6c-5.6,0-5.6,8.5,0,8.5c88.3,0,159.9-71.6,159.9-159.9c0-5.6-8.5-5.6-8.5,0   C894.1,757.8,826.3,825.6,742.7,825.6z" />
              <path d="M627.1,594.9l35.1-35.1c4-4-2.1-10-6-6l-35.1,35.1C617.1,592.8,623.1,598.8,627.1,594.9z" />
              <path d="M376.4,318l16.1,16.1c6.6,6.5,16.6-3.4,10-10l-16.3-16.3c26.7-32.9,24.1-81.4-5.9-111.4c-32.4-32.4-85.5-32.4-117.9,0   c-32.4,32.4-32.4,85.5,0,117.9C293.4,345.2,343.6,346.8,376.4,318z M272.5,304.3c-26.9-26.9-26.9-71,0-97.9   c26.9-26.9,71-26.9,97.9,0c26.9,26.9,26.9,71,0,97.9C343.5,331.2,299.4,331.2,272.5,304.3z" />
              <path d="M991.7,913.2c-6.6-6.5-16.6,3.4-10,10l20,20c6.6,6.5,16.6-3.4,10-10L991.7,913.2z" />
              <path d="M941.6,863.1c-6.6-6.5-16.6,3.4-10,10l20,20c6.6,6.5,16.6-3.4,10-10L941.6,863.1z" />
              <path d="M1114.1,956.9L1114.1,956.9c-21.8,0-41.7,8.4-56.6,22.2l-15.7-15.7c-6.6-6.5-16.6,3.4-10,10l16.2,16.2   c-10.8,14.1-17.2,31.6-17.2,50.7c0,46,37.3,83.4,83.4,83.4s83.4-37.3,83.4-83.4C1197.5,994.2,1160.2,956.9,1114.1,956.9z    M1114.1,1109.4c-38.2,0-69.2-31-69.2-69.2c0-19.1,7.7-36.4,20.3-48.9c12.5-12.5,29.8-20.3,48.9-20.3c38.2,0,69.2,31,69.2,69.2   C1183.3,1078.5,1152.3,1109.4,1114.1,1109.4z" />
              <path d="M1045.7,667.1h-28.3c-9.4,0.1-9.2,14.1,0,14.2h28.3C1055.1,681.2,1054.9,667.1,1045.7,667.1z" />
              <path d="M1325.6,615.2L1325.6,615.2c-32.4-32.4-85.5-32.4-117.9,0c-13.5,13.5-22.4,31.7-24.1,51.9h-24.5c-9.4,0.1-9.2,14.1,0,14.2   h24.5c1.7,20.2,10.6,38.3,24.1,51.9c32.4,32.4,85.5,32.4,117.9,0C1357.9,700.7,1357.9,647.6,1325.6,615.2z M1315.5,723.1   c-26.9,26.9-71,26.9-97.9,0c-12.5-12.5-20.3-29.8-20.3-48.9c0-19.1,7.7-36.4,20.3-48.9c26.9-26.9,71-26.9,97.9,0   C1342.4,652.1,1342.4,696.2,1315.5,723.1z" />
              <path d="M543.3,863.5l-20,20c-6.5,6.6,3.4,16.6,10,10l20-20C559.8,867,549.9,856.9,543.3,863.5z" />
              <path d="M396.9,667.1h-28.3c-9.4,0.1-9.2,14.1,0,14.2h28.3C406.4,681.2,406.2,667.1,396.9,667.1z" />
              <path d="M458.6,879L458.6,879c-46,0-83.4,37.3-83.4,83.4c0,46,37.3,83.4,83.4,83.4c46,0,83.4-37.3,83.4-83.4S504.7,879,458.6,879z    M458.6,1031.6c-38.2,0-69.2-31-69.2-69.2s31-69.2,69.2-69.2v0c38.2,0,69.2,31,69.2,69.2S496.8,1031.6,458.6,1031.6z" />
              <path d="M326.1,667.1h-28.3c-9.4,0.1-9.2,14.1,0,14.2h28.3C335.5,681.2,335.3,667.1,326.1,667.1z" />
              <path d="M735.6,1117.9c0.1,9.4,14.1,9.2,14.2,0v-28.3c-0.1-9.4-14.1-9.2-14.2,0V1117.9z" />
              <path d="M735.6,1047.1c0.1,9.4,14.1,9.2,14.2,0v-28.3c-0.1-9.4-14.1-9.2-14.2,0V1047.1z" />
              <path d="M749.7,976.2v-28.3c-0.1-9.4-14.1-9.2-14.2,0v28.3C735.6,985.6,749.7,985.5,749.7,976.2z" />
              <path d="M749.7,1182.5v-22.1c-0.1-9.4-14.1-9.2-14.2,0v22.2c-42.8,3.9-75.7,40-75.7,83c0,46,37.3,83.4,83.4,83.4   s83.4-37.3,83.4-83.4C826.6,1222.1,793.1,1185.9,749.7,1182.5z M743.3,1334.8c-38.2,0-69.2-31-69.2-69.2c0-38.2,31-69.2,69.2-69.2   c38.2,0,69.2,31,69.2,69.2S781.5,1334.8,743.3,1334.8z" />
              <path d="M786.8,1264.9c0,25.1-20.3,45.4-45.4,45.4c-5.6,0-5.6,8.5,0,8.5c29.8,0,53.9-24.2,53.9-53.9   C795.3,1259.3,786.8,1259.3,786.8,1264.9z" />
            </g>
          </svg>