<svg xmlns="http://www.w3.org/2000/svg" xmlns:xlink="http://www.w3.org/1999/xlink" xml:space="preserve" version="1.1" style="shape-rendering:geometricPrecision;text-rendering:geometricPrecision;image-rendering:optimizeQuality;" viewBox="0 0 50000 62500" x="0px" y="0px" fill-rule="evenodd" clip-rule="evenodd"><defs><style type="text/css">
   
    .fil0 {fill:black;fill-rule:nonzero}
   
  </style></defs><g><path class="fil0" d="M19544.31 37249.66c395.14,-3.07 399.77,597.69 4.7,600.77 -510.99,4.39 -5930.69,43.98 -5938.92,52.2 -1275.34,0 -1823.09,-1011.77 -1823.09,-2115.97l0 -31447.03c0,-1010.48 825.64,-1836.12 1836.12,-1836.12l22753.76 0c1010.48,0 1836.12,825.64 1836.12,1836.12l0 31726.83c0,396.67 -603.13,396.67 -603.13,0l0 -31726.83c0,-677.53 -555.46,-1233 -1232.99,-1233l-22753.76 0c-677.53,0 -1232.99,555.47 -1232.99,1233l0 31421.95c0,762.7 245.44,1537.93 1219.96,1537.93l5934.22 -49.85zm5112.31 -5608.9c-193.17,136.49 -400.93,-157.57 -207.79,-294.03 299.59,-212.15 932.92,-204.71 1229.71,8.33 192.45,138.52 -18.17,431.13 -210.61,292.62 -172.49,-123.81 -637.05,-130.3 -811.31,-6.92zm-3118.66 6534.18c93.02,-94.72 210.16,-174.6 352.09,-241.17 214.8,-100.4 367.39,226.16 152.67,326.53 -148.46,69.62 -254.88,155.41 -320.66,260.72 -53.73,86 -82.62,189.04 -87.53,311.02 489.24,4323.7 1519.94,4881.27 3157.97,8211.97 173.54,354.86 -365.99,618.69 -539.51,263.88 -1697.53,-3451.73 -2727.31,-3987.28 -3224.15,-8473.72 -56.31,-508.51 -193.82,-1117.06 -336.58,-1748.97 -421.96,-1867.6 -886.87,-3925.32 415.31,-4658.8 674.14,-379.72 1540.7,-112.17 2020.46,451.37 -0.53,-341.33 -0.72,-681.97 -0.92,-1022.2 -1.05,-1876.69 -2.11,-3740.75 -59.51,-5652.86 -23.3,-776.44 84.43,-1578 423.61,-2160.46 716.38,-1230.14 2488.15,-1219.12 3069.94,132.45 241.36,560.7 298.71,1277.57 336.21,1955.22 74.15,1339.58 107.59,2681.65 158.86,4022.32 1054.2,-886.38 2779.52,-417.55 3360.75,805.58 264.28,-220.68 612.55,-352.08 984.56,-397.86 908.55,-111.79 1962.8,306.92 2404.72,1146.09 349.1,-77.17 853.17,-152.88 1356.25,-40.28 644.88,144.35 1260.31,579.49 1510.91,1655.41 343.66,1475.39 556.3,3588.56 584.94,5672.43 46.83,3407.1 -567.94,5195.21 -1090.09,8255.79 -66.62,390.47 -660.32,289.17 -593.69,-101.3 515.7,-3022.98 1129.22,-4785.49 1083.02,-8147.42 -28.02,-2038.48 -235.51,-4103.42 -570.8,-5542.86 -184.45,-791.91 -610.83,-1106.26 -1053.87,-1205.43 -926.4,-135.07 -1001.85,145.19 -968.17,856.71 49.41,1044.07 -58.29,2300.34 -2.59,3296.37 21.66,395.15 -579.1,428.04 -600.77,32.98 -55.69,-996.05 67.29,-3598 -108.23,-4198.22 -232,-793.43 -1106.82,-1176.81 -1878.61,-1081.85 -808.03,136.2 -843.53,340.29 -797.15,1022.59 93.15,1369.56 22.6,2796.29 84.07,4184.35 17.03,395.11 -583.73,421.02 -600.76,25.91 -58.54,-1321.73 98.68,-3732.7 -178.82,-4870.66 -327.88,-1344.62 -2337.52,-1719.21 -2887.48,-428.14 43.32,1125.19 62.36,2274.13 82.8,3509.42 9.46,571.52 19.23,1161.76 32.11,1785.69 7.73,395.14 -593.03,406.86 -600.76,11.78 -12.68,-614.52 -22.57,-1210.72 -32.11,-1788.04 -22.23,-1343.36 -42.77,-2583.54 -96.37,-3825.63 -66.45,-1540.66 -98.25,-3082.9 -183.48,-4622.75 -34.45,-622.52 -85.6,-1277.54 -289.09,-1750.26 -381.57,-886.41 -1530.82,-866.97 -1995.63,-68.83 -276.94,475.57 -363.88,1163.77 -343.52,1842.39 57.39,1911.8 58.45,3784.24 59.52,5669.37 4.74,835.13 33.58,1658.22 16.69,2520.6 -44.26,2268.87 236.76,4831.89 562.39,7083.26 55.77,392.06 -540.29,476.81 -596.06,84.83 -347.05,-2399.53 -281.43,-5084.76 -658.68,-7290.03 -54.19,-316.74 -124.64,-578.48 -217.96,-748.17 -268.32,-476.31 -897.58,-855.39 -1432.19,-554.29 -911.29,513.3 -498.16,2341.87 -123.19,4001.49 95.71,423.65 189.12,837.09 259.08,1221.68zm3100.61 -9928.71c-180.1,154.13 -414.79,-120.07 -234.66,-274.23 300.43,-257.38 973.07,-264.6 1261.57,8.03 172.91,162.73 -74.49,425.6 -247.38,262.92 -154.92,-146.41 -616.28,-136.59 -779.53,3.28zm-576.29 -3410.52c39.96,-234.26 396.21,-173.53 356.23,60.79 -161.49,939.13 432.2,1124.54 1197.32,1036.98 236.16,-26.95 277.11,332.11 40.99,359.05 -1017.02,116.41 -1797.75,-275.13 -1594.54,-1456.82zm-2447.15 11145.19c-193.84,42.83 -279.9,-197.02 -166.84,-306.19 378.76,-365.63 135.23,-1683.02 -160.2,-2102.56 -136.49,-194.08 158.97,-401.84 295.43,-207.79 285.76,373.77 704.57,1767.77 195.75,2532.48 -34.18,51.38 -100.45,69.93 -164.14,84.06zm9347.65 -5800.38c-396.67,0 -396.67,-603.12 0,-603.12l3788.46 0c799.48,0 1452.48,653 1452.48,1452.48 0,396.67 -603.12,396.67 -603.12,0 0,-466.54 -382.82,-849.36 -849.36,-849.36l-3788.46 0zm-8718.62 -345.74c324.99,-224.39 666.6,270.37 341.61,494.75 -449.06,310.01 -369.12,781.94 -369.12,1258.5 0,396.66 -603.13,396.66 -603.13,0 0,-714.01 -41.37,-1289.29 630.64,-1753.25zm-3202.02 5832.91c396.67,0 396.67,603.12 0,603.12l-3872.91 0c-799.46,0 -1452.48,-652.99 -1452.48,-1452.47l0 -3788.46c0,-799.48 653,-1452.48 1452.48,-1452.48l3788.48 0c799.45,0 1452.47,653.03 1452.47,1452.48l0 1158c0,396.67 -603.13,396.67 -603.13,0l0 -1158c0,-466.5 -382.84,-849.36 -849.34,-849.36l-3788.48 0c-466.54,0 -849.36,382.82 -849.36,849.36l0 3788.46c0,466.53 382.83,849.35 849.36,849.35l3872.91 0zm11920.64 -13942.95l3788.46 0c799.48,0 1452.48,653 1452.48,1452.48l0 3788.46c0,799.48 -653,1452.49 -1452.48,1452.49l-3788.46 0c-799.48,0 -1452.49,-653.01 -1452.49,-1452.49l0 -3788.46c0,-799.49 653,-1452.48 1452.49,-1452.48zm3788.46 603.12l-3788.46 0c-466.54,0 -849.36,382.82 -849.36,849.36l0 3788.46c0,466.55 382.82,849.36 849.36,849.36l3788.46 0c466.54,0 849.36,-382.81 849.36,-849.36l0 -3788.46c0,-466.54 -382.82,-849.36 -849.36,-849.36zm-6832.51 5622.1c-268.07,289.75 -708.64,-117.84 -440.57,-407.59 145.46,-157.08 225.66,-362.71 225.66,-576.69l0 -3788.46c0,-466.54 -382.84,-849.36 -849.37,-849.36l-3788.46 0c-466.53,0 -849.34,382.83 -849.34,849.36l0 3788.46c0,254.72 109.84,487.22 304.84,650.8 303.33,253.8 -83.06,715.58 -386.39,461.78 -327.54,-274.8 -521.58,-684.56 -521.58,-1112.58l0 -3788.46c0,-799.48 652.99,-1452.48 1452.47,-1452.48l3788.46 0c799.48,0 1452.5,653 1452.5,1452.48l0 3788.46c0,366.82 -139.29,715.43 -388.22,984.28zm-12749.5 -6225.22l3788.48 0c799.48,0 1452.47,653 1452.47,1452.48l0 3788.46c0,799.48 -652.99,1452.49 -1452.47,1452.49l-3788.48 0c-799.48,0 -1452.48,-653.01 -1452.48,-1452.49l0 -3788.46c0,-799.48 653,-1452.48 1452.48,-1452.48zm3788.48 603.12l-3788.48 0c-466.54,0 -849.36,382.82 -849.36,849.36l0 3788.46c0,466.55 382.82,849.36 849.36,849.36l3788.48 0c466.53,0 849.34,-382.83 849.34,-849.36l0 -3788.46c0,-466.53 -382.81,-849.36 -849.34,-849.36zm12005.07 -8455.78l3788.46 0c799.48,0 1452.48,653 1452.48,1452.48l0 3788.46c0,799.48 -653,1452.49 -1452.48,1452.49l-3788.46 0c-799.49,0 -1452.49,-653 -1452.49,-1452.49l0 -3788.46c0,-799.48 653.01,-1452.48 1452.49,-1452.48zm3788.46 603.12l-3788.46 0c-466.54,0 -849.36,382.82 -849.36,849.36l0 3788.46c0,466.55 382.82,849.36 849.36,849.36l3788.46 0c466.54,0 849.36,-382.81 849.36,-849.36l0 -3788.46c0,-466.54 -382.82,-849.36 -849.36,-849.36zm-7896.79 0l-3788.46 0c-466.53,0 -849.34,382.83 -849.34,849.36l0 3788.46c0,466.53 382.81,849.36 849.34,849.36l3788.46 0c466.53,0 849.37,-382.81 849.37,-849.36l0 -3788.46c0,-466.54 -382.84,-849.36 -849.37,-849.36zm-3788.46 -603.12l3788.46 0c799.48,0 1452.5,653 1452.5,1452.48l0 3788.46c0,799.48 -653.02,1452.49 -1452.5,1452.49l-3788.46 0c-799.48,0 -1452.47,-653.01 -1452.47,-1452.49l0 -3788.46c0,-799.48 652.99,-1452.48 1452.47,-1452.48zm-7896.76 0l3788.48 0c799.48,0 1452.47,653 1452.47,1452.48l0 3788.46c0,799.48 -652.99,1452.49 -1452.47,1452.49l-3788.48 0c-799.48,0 -1452.48,-653.01 -1452.48,-1452.49l0 -3788.46c0,-799.48 653,-1452.48 1452.48,-1452.48zm3788.48 603.12l-3788.48 0c-466.54,0 -849.36,382.82 -849.36,849.36l0 3788.46c0,466.55 382.82,849.36 849.36,849.36l3788.48 0c466.53,0 849.34,-382.83 849.34,-849.36l0 -3788.46c0,-466.53 -382.81,-849.36 -849.34,-849.36zm-3788.48 -9088.99l19603.08 0c799.48,0 1452.49,653.01 1452.49,1452.49l0 3788.47c0,799.48 -653.01,1452.47 -1452.49,1452.47l-19603.08 0c-799.48,0 -1452.48,-652.99 -1452.48,-1452.47l0 -3788.47c0,-799.46 653,-1452.49 1452.48,-1452.49zm19603.08 603.12l-19603.08 0c-466.53,0 -849.36,382.86 -849.36,849.37l0 3788.47c0,466.53 382.83,849.34 849.36,849.34l19603.08 0c466.53,0 849.36,-382.81 849.36,-849.34l0 -3788.47c0,-466.53 -382.82,-849.37 -849.36,-849.37z"/></g><text x="0" y="50015" fill="#000000" font-size="5px" font-weight="bold" font-family="'Helvetica Neue', Helvetica, Arial-Unicode, Arial, Sans-serif">Created by Oleksandr Panasovskyi</text><text x="0" y="50020" fill="#000000" font-size="5px" font-weight="bold" font-family="'Helvetica Neue', Helvetica, Arial-Unicode, Arial, Sans-serif">from the Noun Project</text></svg>