<svg xmlns="http://www.w3.org/2000/svg" xmlns:xlink="http://www.w3.org/1999/xlink" xml:space="preserve" version="1.1" style="shape-rendering:geometricPrecision;text-rendering:geometricPrecision;image-rendering:optimizeQuality;" viewBox="0 0 105833.32 132291.65000000002" x="0px" y="0px" fill-rule="evenodd" clip-rule="evenodd"><defs><style type="text/css">
   
    .fil0 {fill:black;fill-rule:nonzero}
   
  </style></defs><g><path class="fil0" d="M25377.81 85201.46c3337.77,649.2 6304.28,1948.85 8606.53,3427.73 3161.94,2031.1 5101.91,4458.93 5101.91,6084.09 0,1769.41 -2123.49,3310.48 -5556.7,4371.64 -3251.62,1005.04 -7730.82,1626.69 -12666.81,1626.69 -4935.99,0 -9415.19,-621.65 -12666.82,-1626.69 -3433.21,-1061.16 -5556.7,-2602.23 -5556.7,-4371.64 0,-1623.3 1935.41,-4047.32 5090.8,-6076.95 2303.5,-1481.68 5273.99,-2784.39 8617.15,-3434.75 769.41,-149.65 645.53,18.44 645.53,-779.9l0 -77115.12c0,-2682.08 6500.49,-2878.45 7586.48,-679.32 163.59,331.27 463.22,402.54 828.28,304.72 395.25,-105.91 890.15,-185.44 1510.73,-236.38 12839.71,-1053.87 22789.06,619.37 29441.72,12813.11 1746.49,3201.17 8273.35,4416 11571.41,4656.47 9539.44,695.51 21190.17,-2676.18 29241.3,3839.52 1460.16,1181.7 1436.9,2032.09 1374.4,4316.8 -315.45,11523.73 786.44,22503.26 3614.3,33672.72 148.28,585.67 294.78,1103.18 430.11,1558.19 1046.41,3518.16 1060.92,4202.12 -2682.37,3040.53 -4520.86,-1269.63 -8403.92,-2696.75 -13210.37,-1830.27 -4112.21,741.32 -8845.28,3181.87 -13191.84,4276.06 -6324.44,1592.13 -12470.95,1329.58 -14460.86,-6574.98 -3056.29,-12140.55 -22124.77,-6795.94 -30962.82,-4504.72 -672.95,174.43 -1826.52,538.75 -2691.21,528.48 -750.35,-8.91 -659.2,-150.6 -659.2,866.86l0 21080.56c0,787.88 -118.33,618.11 645.05,766.55zm28180.83 -31373.47c334.41,92.43 193.88,600.92 -140.56,508.48 -6089.34,-1698.75 -14060.84,-393.39 -20158.85,942.22 -339.87,73.41 -451.48,-443.35 -111.62,-516.76 6196.12,-1357.1 14222.89,-2660.26 20411.03,-933.94zm3413.25 -31430.73c2884.29,7409.01 4554.35,15779.41 5366.36,23650.68 35.33,345.34 -489.7,399 -525.02,53.74 -888.03,-8608.36 -2906.96,-18566.97 -6588.25,-26465.29 -6460.24,-11500.58 -16049.83,-12885.87 -28224.11,-11886.61 -2100.67,172.42 -2095.87,754.16 -2087.35,1785.79l3.59 49846.63c0,2416.74 359.48,2214.65 2901.48,1555.69 9496.83,-2462.02 28961.32,-7804.69 32252.66,5269.52 1777.28,7059.91 7392.19,7262.9 13179.28,5806.04 4384.58,-1103.76 9079.89,-3534.52 13262.12,-4288.46 5038.05,-908.23 8953.72,523.14 13681.67,1850.95 2275.17,638.98 2109.13,706.56 1394.69,-1687.67 -141.93,-475.65 -296.38,-1019.3 -452.95,-1637.75 -2853.79,-11271.92 -3961.33,-22328.31 -3643.24,-33957.98 52.11,-1904.68 71.49,-2613.64 -985.8,-3469.3 -7642.46,-6184.95 -19457.79,-2933.65 -28650.12,-3603.88 -3365.26,-245.36 -7729.9,-1134.76 -10531.73,-3169.44 -885.99,-643.42 -807.6,-819.65 -353.28,347.34zm-23270.17 72360.8c307.24,-161.78 553.2,305.37 245.98,467.14 -2937.92,1547.97 -7499.01,2094.29 -10790.89,2231.58 -346.67,13.6 -367.34,-513.5 -20.68,-527.1 3205.17,-133.67 7704.94,-664.35 10565.59,-2171.62zm-17363.49 -8476.48c-3116.35,635.26 -5883.11,1857.69 -8037.71,3243.59 -2853.01,1835.13 -4602.96,3897.9 -4602.96,5188.11 0,1251.12 1837.54,2444.66 4808.42,3362.92 3152.44,974.38 7520.45,1577.07 12356.76,1577.07 4836.3,0 9204.32,-602.69 12356.75,-1577.07 2970.88,-918.26 4808.42,-2111.8 4808.42,-3362.92 0,-1291.96 -1754.47,-3358.36 -4614.07,-5195.25 -2162.95,-1389.4 -4941.42,-2613.63 -8070.6,-3245.31 -772.49,-155.95 -610.48,-188.49 -610.48,622.81l0 1399.62c0,2361.14 -7740.06,2334.05 -7740.06,0l0 -1465.76c0,-785.74 130.87,-707.9 -654.47,-547.81zm7336.19 1756.71l0 -80731.73c0,-1465.84 -5623.38,-1465.83 -5623.38,0l0 80731.73c0,1234.58 5623.38,1259.81 5623.38,0z"/></g><text x="0" y="105848.32" fill="#000000" font-size="5px" font-weight="bold" font-family="'Helvetica Neue', Helvetica, Arial-Unicode, Arial, Sans-serif">Created by Oleksandr Panasovskyi</text><text x="0" y="105853.32" fill="#000000" font-size="5px" font-weight="bold" font-family="'Helvetica Neue', Helvetica, Arial-Unicode, Arial, Sans-serif">from the Noun Project</text></svg>